<svg xmlns="http://www.w3.org/2000/svg" width="250" height="213.314" viewBox="0 0 250 213.314">
  <g id="Group_4691" data-name="Group 4691" transform="translate(5665 -2195)">
    <path id="Subtraction_9" data-name="Subtraction 9" d="M26.179,141.866v0c.145-.626.324-1.371.514-2.159l.112-.464c.026-.109.579-2.209.585-2.225C32.743,114.649,46.4,56.3,45.315,54.928a.057.057,0,0,0-.045-.025.066.066,0,0,0-.023,0C33.329,59.372,2.506,70.592.451,70.592c-.071,0-.108-.014-.109-.04C.113,65.97-.336,55.273.436,54.908c11.939-5.663,50.919-24.253,51.238-25.7a.057.057,0,0,0-.01-.052c-.19-.227-.429-.5-.706-.812-1.264-1.433-3.175-3.6-3.8-5.43A17.808,17.808,0,0,1,48.542,8.177a16.893,16.893,0,0,1,11.1-7.8A17.089,17.089,0,0,1,72.3,2.624c5.056,3.543,7.809,9.129,8.149,11.964.4,3.352-1.585,7.645-2.9,10.487-.813,1.758-1.4,3.028-1.162,3.4a.263.263,0,0,0,.242.112h.038c.7-.046,6.905-3.59,14.762-8.077,12.549-7.166,28.165-16.084,30.648-16.084a.774.774,0,0,1,.106.007c1.675.23,3.58,2.418,4.631,5.319.964,2.66.871,4.981-.248,6.21-1.286,1.411-11.309,7.966-21.921,14.905-10.879,7.114-22.127,14.47-23.454,16-1.362,1.568-2.068,7.432-2.274,12.4-.241,5.8.132,10.951.887,12.241,1.091,1.865,3.951,1.948,7.911,2.062,1.953.057,4.167.121,6.589.405l1.184.137c5.354.616,10.409,1.2,12.465,3.641a26.5,26.5,0,0,1,3.758,7.467c1.037,2.824,2.1,6.3,3.148,10.337,1.791,6.869,2.957,13.058,2.969,13.119l-20.959,7.591-3.153-20.8a9.155,9.155,0,0,0-1.288-2.687,7.569,7.569,0,0,0-3.125-.821l-20.938-2.23a25.187,25.187,0,0,0-3.348-.294,3.828,3.828,0,0,0-1.813.294,8.517,8.517,0,0,0-2.109,2.893L42.3,136.026l-16.122,5.84Z" transform="translate(-5662.044 2202.892)"/>
    <line id="Line_759" data-name="Line 759" x1="35.604" transform="translate(-5524.52 2278.979)" fill="none" stroke="#000" stroke-linecap="round" stroke-width="3"/>
    <path id="Path_2097" data-name="Path 2097" d="M0,32.553,15.618.2" transform="translate(-5504.396 2278.934)" fill="none" stroke="#000" stroke-linecap="round" stroke-width="3"/>
    <rect id="Rectangle_3159" data-name="Rectangle 3159" width="47.987" height="38.39" rx="5" transform="translate(-5665 2369.922)"/>
    <rect id="Rectangle_3160" data-name="Rectangle 3160" width="47.987" height="56.192" rx="5" transform="translate(-5597.663 2352.121)"/>
    <rect id="Rectangle_3161" data-name="Rectangle 3161" width="47.987" height="106.501" rx="5" transform="translate(-5462.987 2301.811)"/>
    <rect id="Rectangle_3162" data-name="Rectangle 3162" width="47.987" height="80.96" rx="5" transform="translate(-5530.325 2327.353)"/>
    <path id="Icon_awesome-calendar-alt" data-name="Icon awesome-calendar-alt" d="M0,40.081a4.148,4.148,0,0,0,4.146,4.146H34.554A4.147,4.147,0,0,0,38.7,40.081v-23.5H0Zm27.642-16.93a1.04,1.04,0,0,1,1.036-1.036h3.455a1.04,1.04,0,0,1,1.036,1.036v3.455a1.04,1.04,0,0,1-1.036,1.036H28.679a1.04,1.04,0,0,1-1.036-1.036Zm0,11.058a1.04,1.04,0,0,1,1.036-1.036h3.455a1.04,1.04,0,0,1,1.036,1.036v3.454A1.04,1.04,0,0,1,32.134,38.7H28.679a1.04,1.04,0,0,1-1.036-1.036ZM16.585,23.151a1.04,1.04,0,0,1,1.036-1.036h3.455a1.04,1.04,0,0,1,1.036,1.036v3.455a1.04,1.04,0,0,1-1.036,1.036H17.625a1.04,1.04,0,0,1-1.036-1.036Zm0,11.058a1.04,1.04,0,0,1,1.036-1.036h3.455a1.04,1.04,0,0,1,1.036,1.036v3.454A1.04,1.04,0,0,1,21.076,38.7H17.625a1.04,1.04,0,0,1-1.036-1.036ZM5.529,23.151a1.04,1.04,0,0,1,1.036-1.036H10.02a1.04,1.04,0,0,1,1.036,1.036v3.455a1.04,1.04,0,0,1-1.036,1.036H6.565a1.04,1.04,0,0,1-1.036-1.036Zm0,11.058a1.04,1.04,0,0,1,1.036-1.036H10.02a1.04,1.04,0,0,1,1.036,1.036v3.454A1.04,1.04,0,0,1,10.02,38.7H6.565a1.04,1.04,0,0,1-1.036-1.036ZM34.554,5.529H30.408V1.382A1.386,1.386,0,0,0,29.025,0H26.26a1.386,1.386,0,0,0-1.385,1.382V5.529H13.821V1.382A1.386,1.386,0,0,0,12.439,0H9.675A1.386,1.386,0,0,0,8.292,1.382V5.529H4.146A4.147,4.147,0,0,0,0,9.675v4.146H38.7V9.675a4.148,4.148,0,0,0-4.146-4.146Z" transform="translate(-5471.115 2209.39)" fill="none" stroke="#000" stroke-width="1.5"/>
    <g id="Ellipse_948" data-name="Ellipse 948" transform="translate(-5488.53 2195)" fill="none" stroke="#000" stroke-width="3" stroke-dasharray="15">
      <circle cx="36.765" cy="36.765" r="36.765" stroke="none"/>
      <circle cx="36.765" cy="36.765" r="35.265" fill="none"/>
    </g>
    <path id="Path_2095" data-name="Path 2095" d="M-37.02,65.877s64-15.32,97.48-30.413S135.324-7.729,135.324-7.729" transform="translate(-5626.061 2287.69)" fill="none" stroke="#000" stroke-linecap="round" stroke-width="3"/>
  </g>
</svg>
