<svg xmlns="http://www.w3.org/2000/svg" width="150" height="150" xmlns:v="https://vecta.io/nano"><path d="M59.52 0l5.168.221c6.336.545 12.388 2.082 18 4.456a59.32 59.32 0 0 1 7.532 3.841l.034.02.038.023a59.84 59.84 0 0 1 16.716 15.071 59.7 59.7 0 0 1 1.867 2.609c2.139 3.166 3.982 6.55 5.488 10.11 1.823 4.309 3.152 8.877 3.918 13.635l.027.169.048.307.17 1.198c.221 1.676.372 3.369.451 5.086l.038 1.013.026 1.761v.022.026.022.025.023.025.024.024.05l-.002.259a.5.5 0 0 1-1-.011l.002-.488c0-7.901-1.547-15.564-4.598-22.778-1.467-3.467-3.282-6.812-5.395-9.94-2.094-3.099-4.498-6.013-7.146-8.662s-5.563-5.053-8.662-7.146c-3.128-2.114-6.473-3.929-9.94-5.395C75.085 2.547 67.421 1 59.52 1a.5.5 0 1 1 0-1zM.518 57.547c.289.007.507.236.5.512L1 59.52c0 7.821 1.517 15.414 4.509 22.567 1.439 3.439 3.22 6.759 5.295 9.869a58.94 58.94 0 0 0 7.018 8.623 58.96 58.96 0 0 0 8.512 7.148c3.074 2.121 6.364 3.952 9.776 5.443 7.092 3.099 14.641 4.735 22.436 4.862a.5.5 0 1 1-.014 1c-9.199-.15-17.894-2.388-25.625-6.259l-.161-.081-.08-.041-.08-.041-1.435-.754a59.53 59.53 0 0 1-5.609-3.463l-.018-.013-.018-.013-.019-.013-.018-.013-.018-.013-.018-.013-.018-.013-.018-.013-.018-.013-.018-.013-.019-.013-.018-.013-.018-.013-.018-.013-.018-.013-.018-.013-.018-.013-.018-.013-.018-.013-.018-.013-.018-.013-.018-.012-.018-.013-.018-.013-.017-.012-.018-.012-.018-.013-.018-.013-.018-.013-.018-.013-.018-.013-.018-.013-.018-.013-.018-.013-.018-.013-.018-.013-.017-.012-.018-.013-.017-.012-.018-.013-.034-.024-.036-.026c-2.731-1.969-5.287-4.162-7.643-6.554a59.81 59.81 0 0 1-6.715-8.145l-.012-.017-.012-.017-.012-.018-.012-.017-.013-.018-.012-.018-.013-.019-.012-.018-.013-.018-.012-.018-.013-.019-.012-.018-.013-.019-.012-.018-.013-.019-.012-.018-.013-.019-.012-.018-.013-.019-.012-.018-.012-.018-.012-.018-.013-.019-.012-.018-.012-.018-.012-.018-.013-.019-.012-.018-.012-.018-.012-.018-.013-.019-.012-.018-.012-.018-.012-.018-.013-.019-.012-.018-.012-.018-.012-.018-.012-.019-.012-.018-.012-.019-.012-.018-.013-.019-.012-.018-.012-.019-.012-.018-.012-.019-.012-.018-.012-.019-.012-.018-.012-.019-.012-.018-.011-.017-.013-.019-.012-.018C5.081 85.059 1.908 76.945.631 68.215l-.003-.023-.003-.023-.003-.023-.003-.023-.003-.023-.003-.023-.003-.023-.003-.023-.003-.023-.003-.023-.003-.023-.003-.023-.003-.023-.003-.023-.003-.023-.003-.023-.003-.023-.003-.023-.003-.023-.003-.023-.003-.023-.003-.023-.003-.023-.003-.023-.003-.023-.003-.024-.003-.023-.003-.023-.003-.023-.003-.023-.003-.023-.003-.023-.003-.023-.003-.023-.003-.023-.003-.023-.003-.023-.003-.023-.003-.023-.003-.022-.003-.024-.003-.023-.003-.024-.003-.023-.003-.023-.003-.023-.003-.023-.003-.023-.003-.024-.003-.024-.003-.024-.003-.023-.003-.023-.003-.023-.003-.024-.003-.022-.003-.024-.085-.724-.003-.024-.003-.023-.003-.023-.003-.023-.003-.024-.003-.023-.003-.024-.002-.023-.003-.024-.002-.023-.003-.024-.002-.023-.002-.023-.002-.023-.002-.023-.002-.023-.002-.024-.002-.023-.002-.024-.002-.023-.002-.023-.002-.023-.002-.024-.002-.023-.002-.024-.002-.023-.002-.024-.002-.023-.002-.024-.002-.023-.002-.024-.002-.023-.002-.024-.002-.023-.002-.024-.002-.023-.002-.023-.002-.023-.002-.024-.002-.023-.002-.024-.002-.023-.002-.024-.002-.023-.002-.024-.002-.023-.002-.023-.002-.023-.002-.024L.249 65l-.002-.024-.002-.023-.002-.024-.002-.024-.002-.024-.002-.022-.002-.024-.002-.024-.002-.024-.002-.023-.002-.024-.002-.024-.002-.024-.002-.023-.002-.024-.002-.024-.002-.023-.002-.023-.002-.025-.002-.024-.002-.023-.002-.023-.002-.025-.002-.026-.004-.047-.029-.379-.002-.024-.002-.024-.002-.024-.002-.023-.002-.024-.002-.024-.002-.023-.002-.023-.002-.024-.002-.023-.002-.023-.002-.023-.002-.024-.002-.024-.002-.023-.002-.023-.002-.024-.002-.024-.002-.023-.002-.023-.002-.024-.002-.024-.002-.023-.002-.023-.002-.024-.002-.024-.002-.023-.001-.023-.002-.024-.002-.024-.001-.023-.001-.023-.001-.024-.001-.024-.001-.023-.001-.024-.001-.024-.001-.024-.001-.023-.001-.024-.001-.024-.001-.024-.001-.023-.001-.024-.001-.024-.001-.024-.001-.023-.001-.024-.001-.024-.001-.024-.001-.023-.001-.024-.001-.024-.001-.024-.001-.023-.001-.024-.001-.024-.001-.024-.001-.023-.001-.024-.001-.024-.001-.024-.001-.023-.001-.023-.001-.024-.001-.024-.001-.023-.001-.023-.001-.024-.001-.024-.001-.024-.001-.023-.001-.025-.001-.023-.001-.023-.001-.023-.001-.025-.001-.024-.001-.023-.001-.024-.001-.026-.001-.023-.001-.023v-.024l-.001-.028-.001-.025-.006-.144-.002-.048-.001-.024-.001-.024-.001-.024-.001-.023v-.024l-.001-.023-.001-.024-.001-.024-.001-.024-.001-.023v-.024l-.001-.023-.001-.024-.001-.023v-.024l-.001-.024-.001-.024-.001-.024v-.025l-.001-.023-.001-.024v-.024l-.001-.024-.001-.024v-.024l-.001-.023-.001-.024v-.024l-.001-.024v-.023l-.001-.024-.001-.024v-.024l-.001-.024v-.024l-.001-.023v-.024l-.001-.024-.001-.024v-.024l-.001-.024v-.024-.024-.024-.024-.023-.024-.023-.024-.023-.024-.023-.024-.024-.024-.024-.024-.024-.024-.024-.024-.024-.025-.024-.024-.024-.024-.024-.024-.024-.024-.024-.024-.024-.024-.023-.024-.024-.025-.023-.024-.025-.025-.024-.024-.023-.025-.023-.025-.023-.022-.024-.03-.03-.025-.025-.026-.026-.026-.027-.057-.025-.025-.026-.026-.03-.054-.025-.026-.026-.027l.001-.082v-.026-.026-.027-.028l.001-.081v-.026-.027-.027l.012-.636a.5.5 0 0 1 .5-.486z" fill="#000" transform="matrix(.951 .309 -.309 .951 36.786 0)"/><path d="M114.244 112.631l7.522-35.098 24.144 18.193zM35.198 38.664l-2.564 35.803L6.193 59.811z"/><g stroke="#000"><path d="M51.947 108.14h0l.315-1.319.011-.045.3-1.158c2.785-11.638 9.891-42 9.327-42.712a.03.03 0 0 0-.024-.013h-.012c-6.198 2.323-22.239 8.162-23.305 8.162-.037 0-.056-.007-.057-.021-.147-2.962-.336-7.957.05-8.14 6.212-2.947 26.493-12.618 26.659-13.37a.03.03 0 0 0-.005-.027l-.366-.421a10.24 10.24 0 0 1-1.979-2.827 9.27 9.27 0 0 1 .722-7.669c1.273-2.099 3.367-3.57 5.774-4.056a8.89 8.89 0 0 1 6.585 1.17 10.46 10.46 0 0 1 4.241 6.225c.209 1.744-.825 3.978-1.51 5.456-.423.915-.729 1.576-.6 1.771.029.04.077.063.126.058h.02c.364-.024 3.6-1.869 7.686-4.205 6.52-3.733 14.646-8.375 15.938-8.375a.4.4 0 0 1 .055 0c.872.12 1.863 1.259 2.41 2.769.5 1.383.453 2.591-.13 3.229-.669.735-5.887 4.146-11.41 7.759-5.659 3.7-11.509 7.526-12.2 8.321-.709.816-1.076 3.867-1.183 6.45-.126 3.02.068 5.7.462 6.37.568.97 2.057 1.013 4.118 1.073 1.016.029 2.167.063 3.427.21l.589.068h.031c2.783.321 5.412.623 6.482 1.895 2.7 3.212 5.115 15.962 5.139 16.09l-10.9 3.95-1.64-10.82c-.145-.5-.372-.973-.67-1.4a3.9 3.9 0 0 0-1.626-.428L73.902 81c-.577-.09-1.159-.141-1.742-.153a1.99 1.99 0 0 0-.943.153 4.42 4.42 0 0 0-1.1 1.5l-9.778 22.6-8.391 3.039z"/><path d="M116.921 79.713l-10.968-1.511m6.166 13.577l4.869-11.985M43.96 111.551s27.148-6.807 44.551-14.652c17.42-7.853 25.328-14.946 25.328-14.946" fill="none" stroke-linecap="round"/></g></svg>