<svg xmlns="http://www.w3.org/2000/svg" width="500" height="700" viewBox="0 0 500 700">
  <g id="Group_5519" data-name="Group 5519" transform="translate(7326 12307)">
    <rect id="Rectangle_3547" data-name="Rectangle 3547" width="500" height="700" transform="translate(-7326 -12307)" fill="#e5f3f9"/>
    <rect id="Rectangle_3548" data-name="Rectangle 3548" width="500" height="210.972" transform="translate(-7326 -11817.973)" fill="#b8e9ff"/>
    <g id="Group_5518" data-name="Group 5518" transform="translate(-0.131)">
      <g id="undraw_wait_in_line_o2aq_1_" data-name="undraw_wait_in_line_o2aq (1)" transform="translate(-7266.299 -12036.268)">
        <g id="Group_5503" data-name="Group 5503" transform="translate(148.607 58.674)">
          <path id="uuid-7eb24f19-d190-4a71-9df2-28d9546a7028-106" d="M435.668,187.622c2.612-3.928,6.437-5.512,8.543-3.538s1.695,6.757-.919,10.686a11.12,11.12,0,0,1-3.882,3.709l-11.246,16.475-6.4-6.428,11.766-15.556a13.647,13.647,0,0,1,2.14-5.347Z" transform="translate(-378.368 -180.184)" fill="rgba(194,194,194,0.3)"/>
          <path id="Path_26330" data-name="Path 26330" d="M342.3,177.979l16.408,33.1,19.864-16.287,7.99,3.783s-14.116,36.467-26.287,34.095-36.389-35-33.609-46.4,15.635-8.289,15.635-8.289Z" transform="translate(-326.443 -177.591)" fill="rgba(194,194,194,0.3)"/>
        </g>
        <path id="Rectangle_3541" data-name="Rectangle 3541" d="M1.425.6l9.7-.485L10,26.26l-9.7.485Z" transform="translate(203.219 51.901) rotate(-16.453)" fill="rgba(194,194,194,0.3)"/>
        <path id="Path_26331" data-name="Path 26331" d="M336.846,161.555l.2-15.521-8.063-5.967-8.764,12.73Z" transform="translate(-174.439 -101.668)" fill="rgba(194,194,194,0.3)"/>
        <path id="Path_26332" data-name="Path 26332" d="M347.338,161.555l.522-15.134-8.389-6.353,2.85,18.729Z" transform="translate(-184.931 -101.668)" fill="rgba(194,194,194,0.3)" opacity="0.1"/>
        <ellipse id="Ellipse_1063" data-name="Ellipse 1063" cx="14.341" cy="17.022" rx="14.341" ry="17.022" transform="translate(143.748 11.869)" fill="rgba(194,194,194,0.3)"/>
        <path id="Path_26333" data-name="Path 26333" d="M358.186,347.864l-2.527,20.387-1.27,10.267-5.29,42.719q-10.011-.373-19.749-1.054l.942-26.012.569-15.653.374-10.267.232-6.462-3.4-15.416s-1.12-2.469-2.258-5.76c-.2-.583-.405-1.194-.6-1.821-1.411-4.479-2.531-9.813-1.125-12.6.068-.129.137-.254.214-.373.637-.978,2.293-1.707,4.535-2.248a39.249,39.249,0,0,1,4.689-.794,137.477,137.477,0,0,1,16.434-.643c4.4.043,7.58.205,7.58.205l.046,1.724,0,.167.032,1.308.077,3.123.2,7.716.2,7.84.1,3.647Z" transform="translate(-176.196 -185.35)" fill="rgba(194,194,194,0.3)"/>
        <path id="Path_26334" data-name="Path 26334" d="M321.424,344.443l-7.088,16.875-4.484,7.159-6.423,10.267-9.8,15.653-15.542,24.829q-11.213-1.037-21.956-2.459l19.024-38.023,5.135-10.267,4.957-9.9,3.15-15.491s0-.826.05-2.151c.023-.556.055-1.2.1-1.912.278-4.728,1.12-12.266,3.624-15.221a3.8,3.8,0,0,1,1.107-.934c.751-.4,2-.3,3.583.14,3.906,1.107,9.805,4.375,15.105,7.613,3.665,2.248,7.038,4.479,9.264,5.987Z" transform="translate(-139.53 -185.576)" fill="rgba(194,194,194,0.3)"/>
        <path id="Path_26335" data-name="Path 26335" d="M311.782,157.551l16.291,9.282s17.269,60.718,17.269,63.812,4.888,5.027,1.955,8.508,5.459,6.428.937,9.209-32.725,17.986-35.861,16.616c-8.65-3.782.366-17.681.366-17.681s-6.5-6.211-5.52-9.3-5.865-62.265-5.865-62.265l10.426-18.181h0Z" transform="translate(-164.167 -109.705)" fill="rgba(194,194,194,0.3)"/>
        <path id="Path_26336" data-name="Path 26336" d="M327.577,109.193l3.6,2.391s-2.212-7.749-.6-11.167a7.833,7.833,0,0,0,.672-5.833s5.747,2.246,7.26-.563,2.014-4.272-2.915-6.648-3.075-.7-3.075-.7-4.209-1.9-3.282-1.058-3.489-1.42-2.867-.333-2.77-.942-2.148.145-7.858,2.635-6.114,3.344-7.151,1.534-6.88,9.789-4.577,10.6-1,13,8.564,12.669,8.564,12.669L323,120.835s-1.265-13.275,4.58-11.637h0Z" transform="translate(-168.279 -76.347)" fill="rgba(194,194,194,0.3)"/>
        <g id="Group_5504" data-name="Group 5504" transform="translate(74.638 68.488)">
          <path id="uuid-788a1427-1d14-4107-8598-91cdf159bec2-107" d="M254.553,283.661c4.177-.643,7.29-3.725,6.945-6.882s-4.014-5.2-8.2-4.553a9.588,9.588,0,0,0-4.675,2.048l-17.686,2.99,1.359,9.819,17.291-3.986a8.99,8.99,0,0,0,4.962.566Z" transform="translate(-200.446 -230.85)" fill="rgba(194,194,194,0.3)"/>
          <path id="Path_26337" data-name="Path 26337" d="M163.992,205.477l4.852,42.864s1.334,9.219,13.481,7.861,28.109-6.948,28.109-6.948l-1.039-10.014-13.567,1.744s-6.333-1.824-7.59-.594-.68,2.67-1.923.875-.619-2.9-1.708-1.337-1.311,4.288-1.962.917-1.865-2.686-1.865-2.686l-.691-31.4s-3.644-14.978-10.3-9.97-5.8,8.691-5.8,8.691Z" transform="translate(-163.956 -195.762)" fill="rgba(194,194,194,0.3)"/>
        </g>
        <rect id="Rectangle_3542" data-name="Rectangle 3542" width="24.026" height="42.137" transform="translate(71.913 44.004)" fill="rgba(194,194,194,0.3)"/>
        <path id="Path_26338" data-name="Path 26338" d="M169.814,194.378l.841-12.069h11.188l2.48,12.787Z" transform="translate(-92.508 -121.085)" fill="rgba(194,194,194,0.3)"/>
        <path id="Path_26339" data-name="Path 26339" d="M169.814,194.378l.841-12.069h11.188l2.48,12.787Z" transform="translate(-92.508 -121.085)" fill="rgba(194,194,194,0.3)" opacity="0.1"/>
        <path id="Ellipse_1064" data-name="Ellipse 1064" d="M14.9.1C22.887-.1,29.2,5.244,29,12.03S22.164,24.48,14.18,24.679-.115,19.539.085,12.753,6.919.3,14.9.1Z" transform="translate(70.942 62.917) rotate(-80.783)" fill="rgba(194,194,194,0.3)"/>
        <path id="Path_26340" data-name="Path 26340" d="M158.905,130.161s0-5.959-4.661-4.682-6.1,3.4-6.1,3.4-1.793,3.4-4.661,3.831-5.379,10.215-5.02,12.347,2.152,7.661-.359,10.215-6.1,6.385-5.02,10.215,4.3,13.62,4.3,13.62-9,1.561-8.266,8.229a16.264,16.264,0,0,1,10.059-3.973c5.734,0,5.02-12.355,5.02-12.355s.359-7.649,1.434-9.778-.359-14.046,5.02-20.43,8.247-10.641,8.247-10.641Z" transform="translate(-70.319 -94.878)" fill="rgba(194,194,194,0.3)"/>
        <path id="Path_26341" data-name="Path 26341" d="M187.029,131.929a14.324,14.324,0,0,1,9.324,9.789c2.511,8.087,1.243,9.592,1.243,9.592s.555,4.87,3.6,6.577.536,8.944.536,8.944.718,7.235,10.4,9.789S200,198.758,200,198.758s1.569-9.243-8.472-9.669,1.966-22.258,1.966-22.258l1.075-14.046s-2.152-16.174-8.606-18.3,1.076-2.554,1.076-2.554h0Z" transform="translate(-99.877 -97.928)" fill="rgba(194,194,194,0.3)"/>
        <path id="Path_26342" data-name="Path 26342" d="M187.995,348.579l-2.476,20-1.27,10.267L182.1,396.21l-2.18,17.6q-3.872-.665-7.648-1.378-6.487-1.224-12.7-2.583l.806-22.332.314-8.672.373-10.267.219-6.078-3.405-15.416s-7.025-15.524-3.768-20.549a2.748,2.748,0,0,1,.605-.643,10.321,10.321,0,0,1,3.91-1.605c4.056-.983,10.065-1.34,15.542-1.432,7.029-.119,13.174.2,13.174.2l.036,1.27.074,2.755.55,21.5Z" transform="translate(-83.482 -185.676)" fill="rgba(194,194,194,0.3)"/>
        <path id="Path_26343" data-name="Path 26343" d="M184.812,348.921l-2.476,20-1.27,10.267-2.153,17.367-9.829,16.22q-6.487-1.224-12.7-2.583-4.568-1-8.981-2.07l9.787-20.263,4.188-8.672,4.953-10.267,2.381-4.928,2.071-4.29,1.516-8,1.166-6.133.269-1.416s-.027-2.226.15-5.214c.273-4.528,1.025-10.818,3.091-13.773a4.163,4.163,0,0,1,1.37-1.318c1.075-.6,3.194-.19,5.85.816l.068,2.755.55,21.5Z" transform="translate(-80.298 -186.017)" fill="rgba(194,194,194,0.3)"/>
        <path id="Path_26344" data-name="Path 26344" d="M171.478,200.513l-.3-.1-14.69-4.927-11.73,18.951,7.82,39.447-2.932,15.856s23.786-7.348,33.235-1.16c0,0,.655-3.526,0-5.244s-1.629-8.865-.655-12.055-1.955-18.278-1.955-18.278.977-10.056-3.258-15.083-5.539-17.4-5.539-17.4h0Z" transform="translate(-78.86 -127.142)" fill="rgba(194,194,194,0.3)"/>
        <path id="uuid-cd6b1305-cf39-49fc-bef1-740b2c9d0d0e-108" d="M187.785,375.211c1.053,4.846,4.014,8.128,6.611,7.331s3.85-5.369,2.795-10.216a13.479,13.479,0,0,0-2.289-5.25l-4.678-20.466-8.044,2.813,5.469,19.874a14.8,14.8,0,0,0,.139,5.914h0Z" transform="translate(-99.244 -196.608)" fill="rgba(194,194,194,0.3)"/>
        <path id="Path_26345" data-name="Path 26345" d="M176.33,225.364s-4.556-14.613-9.549-13.662-9.546,10.137-9.546,10.137l3.61,51.985,9.911,29.665,10.517-4.921-5.463-29.647.516-43.555h0Z" transform="translate(-85.656 -134.576)" fill="rgba(194,194,194,0.3)"/>
        <path id="Path_26346" data-name="Path 26346" d="M543.2,70V294.037c-.15.038-.3.07-.456.1q-3.462.746-7.016,1.437-4.22.826-8.559,1.6-3.6.632-7.284,1.227-10.714,1.742-22.006,3.091-3.612.438-7.283.826a640.045,640.045,0,0,1-67.644,3.513q-5.006,0-9.951-.076c-.155,0-.3,0-.455-.006V70Z" transform="translate(-224.742 -69.459)" fill="rgba(194,194,194,0.3)" opacity="0.7"/>
        <path id="Path_26347" data-name="Path 26347" d="M542.2,143.45v.665l.059-.141a3.513,3.513,0,0,0-.059-.524Zm-130.2,70.589-.455-.437v48.565h.455v43.119c.15.006.3.006.455.006V181.284c-.15.1-.3.19-.455.281v32.472ZM411.55,69V305.279c.15.006.3.011.455.011s.3.006.455.006V70.077H542.206v223.6c.155-.027.3-.059.455-.1s.3-.059.456-.1V69Z" transform="translate(-224.197 -69)" fill="rgba(194,194,194,0.3)"/>
        <ellipse id="Ellipse_1065" data-name="Ellipse 1065" cx="8.65" cy="10.267" rx="8.65" ry="10.267" transform="translate(190.31 149.403)" fill="rgba(194,194,194,0.3)"/>
        <g id="Group_5505" data-name="Group 5505" transform="translate(141.732 75.466)">
          <path id="uuid-340fa4d6-17c0-4cd5-bee8-12f32296eb37-109" d="M414.81,337.484c3.105,3.385,7.093,4.227,8.908,1.882s.768-6.99-2.338-10.377a10.279,10.279,0,0,0-4.329-2.929l-13.308-14.146-5.459,7.554,13.7,13.14a12.8,12.8,0,0,0,2.828,4.873Z" transform="translate(-358.702 -256.125)" fill="rgba(194,194,194,0.3)"/>
          <path id="Path_26348" data-name="Path 26348" d="M328.976,214.97s-10.521-9.319-14.274-5.3-3.358,14.67-3.358,14.67L338.2,265.628l21.917,18.487,6.568-10.921-18.178-21.347L328.976,214.97Z" transform="translate(-311.331 -208.666)" fill="rgba(194,194,194,0.3)"/>
        </g>
        <path id="Path_26349" data-name="Path 26349" d="M591.283,392.5v57.233q-3.612.438-7.283.826V392.5Z" transform="translate(-318.142 -217.701)" fill="rgba(194,194,194,0.3)"/>
        <path id="Path_26350" data-name="Path 26350" d="M7.283,392.5v25.99Q3.466,416.485,0,414.38V392.5Z" transform="translate(0 -217.701)" fill="rgba(194,194,194,0.3)"/>
        <rect id="Rectangle_3543" data-name="Rectangle 3543" width="265.403" height="10.267" transform="translate(5.006 182.902)" fill="rgba(194,194,194,0.3)"/>
        <path id="Path_26351" data-name="Path 26351" d="M705.668,126.67s-4.856,3.38-3.263,6.723,3.813,7.9,2.307,9.333-3.993,7.756-3.993,7.756-10.614-1.76-9.618,8.027,5.979,11.12,1.709,15.425,4.442,9.454,4.442,9.454a12.631,12.631,0,0,0,7.39-9.069c1.373-6.843-1.224,5.233-.353,6.1s4.252,6.573,6.645-1.015.024-10.531,3.185-15.01,5.311-11.723,5.217-12.989,3.616-12.822-2.094-17.328a74.415,74.415,0,0,0-11.571-7.406Z" transform="translate(-376.452 -95.51)" fill="rgba(194,194,194,0.3)"/>
        <g id="Group_5506" data-name="Group 5506" transform="translate(279.417 68.637)">
          <path id="uuid-a9d6e0e2-9081-4547-a7f7-3829edb971db-110" d="M622.37,304.363c-2.434,3.256-5.823,4.4-7.568,2.565s-1.186-5.968,1.249-9.224a9.391,9.391,0,0,1,3.528-2.99l10.461-13.639,5.288,5.964L624.453,299.85a11.62,11.62,0,0,1-2.084,4.513h0Z" transform="translate(-613.786 -235.12)" fill="rgba(194,194,194,0.3)"/>
          <path id="Path_26352" data-name="Path 26352" d="M663.925,201.1s6.345-6.917,9.022-4.589,3.021,9.311,3.021,9.311L660.756,234.9l-21.939,21.949-4.9-6.611,19.331-23.519L663.923,201.1Z" transform="translate(-624.751 -196.03)" fill="rgba(194,194,194,0.3)"/>
        </g>
        <path id="Path_26353" data-name="Path 26353" d="M723.968,173.54l-3.44,14.5h18.863l-6.211-17.866Z" transform="translate(-392.519 -115.507)" fill="rgba(194,194,194,0.3)"/>
        <path id="Path_26354" data-name="Path 26354" d="M723.968,173.54l-3.44,14.5h18.863l-6.211-17.866Z" transform="translate(-392.519 -115.507)" fill="rgba(194,194,194,0.3)" opacity="0.1"/>
        <path id="Path_26355" data-name="Path 26355" d="M717.535,264.958l11.058,31.014-37.433-2.194,2.544-28.82Z" transform="translate(-376.52 -159.075)" fill="rgba(194,194,194,0.3)"/>
        <path id="Path_26356" data-name="Path 26356" d="M707.425,188.841l15.609-.772,10.4,21.614-9.1,34.736-31.867,3.86,3.451-33.5,1.752-18.99Z" transform="translate(-377.23 -123.733)" fill="rgba(194,194,194,0.3)"/>
        <path id="Path_26357" data-name="Path 26357" d="M727.214,342.587c-.751,4.318-1.566,10.234-2.362,16.648-.414,3.34-.824,6.813-1.216,10.267-1.011,8.856-1.912,17.572-2.508,23.5q-7.429,2.286-15.433,4.35L702.942,369.5l-1.015-10.267-1.052-10.623-.473,10.623-.46,10.267-1.325,29.6q-4.281,1.021-8.7,1.967c-.15.038-.3.07-.456.1s-.3.07-.455.1q-3.462.746-7.016,1.437l-.392-33.2-.123-10.267-.441-37.251,3.85-15.086,1.161-.124,2.963-.319.456-.049.455-.054,29.481-3.177.983-.108s.7,1.627,1.666,4.333c.082.227.169.465.255.708.833,2.377,1.826,5.463,2.732,8.944a82.778,82.778,0,0,1,2.6,15.1A44.217,44.217,0,0,1,727.214,342.587Z" transform="translate(-371.004 -176.593)" fill="rgba(194,194,194,0.3)"/>
        <g id="Group_5507" data-name="Group 5507" transform="translate(348.904 68.72)">
          <path id="uuid-de836ca6-962e-4f27-b85c-b36b0bd5804b-111" d="M774.879,329.689c-.274,4.341-2.384,7.691-4.711,7.486s-3.991-3.895-3.716-8.237a12.39,12.39,0,0,1,1.279-4.916l1.357-18.375,7.251.94L774.232,324.6a12.756,12.756,0,0,1,.647,5.089Z" transform="translate(-766.423 -246.498)" fill="rgba(194,194,194,0.3)"/>
          <path id="Path_26358" data-name="Path 26358" d="M766.477,206.321s1.514-10.066,4.833-10.139,7.156,5.233,7.156,5.233l2.748,34.074-6.246,33.24L767.694,267l3.371-32.615-4.587-28.063h0Z" transform="translate(-766.453 -196.181)" fill="rgba(194,194,194,0.3)"/>
        </g>
        <ellipse id="Ellipse_1066" data-name="Ellipse 1066" cx="11.36" cy="13.484" rx="11.36" ry="13.484" transform="translate(324.571 34.216)" fill="rgba(194,194,194,0.3)"/>
        <path id="Path_26359" data-name="Path 26359" d="M727.661,126.7s-1.894,6.292,1.136,7.641,7.195,3.146,6.816,5.394,1.136,8.989,1.136,8.989-9.092,6.741-3.031,13.484,10.6,3.964,9.656,10.521,8.519,3.861,8.519,3.861,3.408-6.292.757-12.584,1.893,4.944,3.031,4.944,6.816,1.8,4.544-5.843-5.68-8.09-5.68-13.933-2.272-13.035-3.031-13.933-4.165-12.584-10.982-11.686a66.86,66.86,0,0,0-12.875,3.146h0Z" transform="translate(-396.085 -94.053)" fill="rgba(194,194,194,0.3)"/>
        <path id="Rectangle_3544" data-name="Rectangle 3544" d="M1.425.6l9.7-.485L10,26.26l-9.7.485Z" transform="translate(270.004 122.196) rotate(-16.453)" fill="rgba(194,194,194,0.3)"/>
        <path id="Rectangle_3545" data-name="Rectangle 3545" d="M1.425.6l9.7-.485L10,26.26l-9.7.485Z" transform="translate(119.777 100.583) rotate(-16.453)" fill="rgba(194,194,194,0.3)"/>
        <g id="Group_5508" data-name="Group 5508" transform="translate(295.149 174.537)">
          <path id="Path_26360" data-name="Path 26360" d="M655.624,392.016v53.175q-3.6.632-7.283,1.227v-54.4Z" transform="translate(-648.341 -392.016)" fill="rgba(194,194,194,0.3)"/>
          <rect id="Rectangle_3546" data-name="Rectangle 3546" width="93.011" height="10.267" transform="translate(5.007 8.104)" fill="rgba(194,194,194,0.3)"/>
        </g>
      </g>
      <g id="undraw_wait_in_line_o2aq_1_2" data-name="undraw_wait_in_line_o2aq (1)" transform="translate(-7278.869 -12029.462)">
        <g id="Group_5503-2" data-name="Group 5503" transform="translate(148.607 58.674)">
          <path id="uuid-7eb24f19-d190-4a71-9df2-28d9546a7028-106-2" data-name="uuid-7eb24f19-d190-4a71-9df2-28d9546a7028-106" d="M435.668,187.622c2.612-3.928,6.437-5.512,8.543-3.538s1.695,6.757-.919,10.686a11.12,11.12,0,0,1-3.882,3.709l-11.246,16.475-6.4-6.428,11.766-15.556a13.647,13.647,0,0,1,2.14-5.347Z" transform="translate(-378.368 -180.184)" fill="#ffb6b6"/>
          <path id="Path_26330-2" data-name="Path 26330" d="M342.3,177.979l16.408,33.1,19.864-16.287,7.99,3.783s-14.116,36.467-26.287,34.095-36.389-35-33.609-46.4,15.635-8.289,15.635-8.289Z" transform="translate(-326.443 -177.591)" fill="#00b0ff"/>
        </g>
        <path id="Rectangle_3541-2" data-name="Rectangle 3541" d="M1.425.6l9.7-.485L10,26.26l-9.7.485Z" transform="translate(203.219 51.901) rotate(-16.453)" fill="#00b0ff"/>
        <path id="Path_26331-2" data-name="Path 26331" d="M336.846,161.555l.2-15.521-8.063-5.967-8.764,12.73Z" transform="translate(-174.439 -101.668)" fill="#ffb6b6"/>
        <path id="Path_26332-2" data-name="Path 26332" d="M347.338,161.555l.522-15.134-8.389-6.353,2.85,18.729Z" transform="translate(-184.931 -101.668)" opacity="0.1"/>
        <ellipse id="Ellipse_1063-2" data-name="Ellipse 1063" cx="14.341" cy="17.022" rx="14.341" ry="17.022" transform="translate(143.748 11.869)" fill="#ffb6b6"/>
        <path id="Path_26333-2" data-name="Path 26333" d="M358.186,347.864l-2.527,20.387-1.27,10.267-5.29,42.719q-10.011-.373-19.749-1.054l.942-26.012.569-15.653.374-10.267.232-6.462-3.4-15.416s-1.12-2.469-2.258-5.76c-.2-.583-.405-1.194-.6-1.821-1.411-4.479-2.531-9.813-1.125-12.6.068-.129.137-.254.214-.373.637-.978,2.293-1.707,4.535-2.248a39.249,39.249,0,0,1,4.689-.794,137.477,137.477,0,0,1,16.434-.643c4.4.043,7.58.205,7.58.205l.046,1.724,0,.167.032,1.308.077,3.123.2,7.716.2,7.84.1,3.647Z" transform="translate(-176.196 -185.35)" fill="#2f2e41"/>
        <path id="Path_26334-2" data-name="Path 26334" d="M321.424,344.443l-7.088,16.875-4.484,7.159-6.423,10.267-9.8,15.653-15.542,24.829q-11.213-1.037-21.956-2.459l19.024-38.023,5.135-10.267,4.957-9.9,3.15-15.491s0-.826.05-2.151c.023-.556.055-1.2.1-1.912.278-4.728,1.12-12.266,3.624-15.221a3.8,3.8,0,0,1,1.107-.934c.751-.4,2-.3,3.583.14,3.906,1.107,9.805,4.375,15.105,7.613,3.665,2.248,7.038,4.479,9.264,5.987Z" transform="translate(-139.53 -185.576)" fill="#2f2e41"/>
        <path id="Path_26335-2" data-name="Path 26335" d="M311.782,157.551l16.291,9.282s17.269,60.718,17.269,63.812,4.888,5.027,1.955,8.508,5.459,6.428.937,9.209-32.725,17.986-35.861,16.616c-8.65-3.782.366-17.681.366-17.681s-6.5-6.211-5.52-9.3-5.865-62.265-5.865-62.265l10.426-18.181h0Z" transform="translate(-164.167 -109.705)" fill="#00b0ff"/>
        <path id="Path_26336-2" data-name="Path 26336" d="M327.577,109.193l3.6,2.391s-2.212-7.749-.6-11.167a7.833,7.833,0,0,0,.672-5.833s5.747,2.246,7.26-.563,2.014-4.272-2.915-6.648-3.075-.7-3.075-.7-4.209-1.9-3.282-1.058-3.489-1.42-2.867-.333-2.77-.942-2.148.145-7.858,2.635-6.114,3.344-7.151,1.534-6.88,9.789-4.577,10.6-1,13,8.564,12.669,8.564,12.669L323,120.835s-1.265-13.275,4.58-11.637h0Z" transform="translate(-168.279 -76.347)" fill="#2f2e41"/>
        <g id="Group_5504-2" data-name="Group 5504" transform="translate(74.638 68.488)">
          <path id="uuid-788a1427-1d14-4107-8598-91cdf159bec2-107-2" data-name="uuid-788a1427-1d14-4107-8598-91cdf159bec2-107" d="M254.553,283.661c4.177-.643,7.29-3.725,6.945-6.882s-4.014-5.2-8.2-4.553a9.588,9.588,0,0,0-4.675,2.048l-17.686,2.99,1.359,9.819,17.291-3.986a8.99,8.99,0,0,0,4.962.566Z" transform="translate(-200.446 -230.85)" fill="#a0616a"/>
          <path id="Path_26337-2" data-name="Path 26337" d="M163.992,205.477l4.852,42.864s1.334,9.219,13.481,7.861,28.109-6.948,28.109-6.948l-1.039-10.014-13.567,1.744s-6.333-1.824-7.59-.594-.68,2.67-1.923.875-.619-2.9-1.708-1.337-1.311,4.288-1.962.917-1.865-2.686-1.865-2.686l-.691-31.4s-3.644-14.978-10.3-9.97-5.8,8.691-5.8,8.691Z" transform="translate(-163.956 -195.762)" fill="#e6e6e6"/>
        </g>
        <rect id="Rectangle_3542-2" data-name="Rectangle 3542" width="24.026" height="42.137" transform="translate(71.913 44.004)" fill="#2f2e41"/>
        <path id="Path_26338-2" data-name="Path 26338" d="M169.814,194.378l.841-12.069h11.188l2.48,12.787Z" transform="translate(-92.508 -121.085)" fill="#a0616a"/>
        <path id="Path_26339-2" data-name="Path 26339" d="M169.814,194.378l.841-12.069h11.188l2.48,12.787Z" transform="translate(-92.508 -121.085)" opacity="0.1"/>
        <path id="Ellipse_1064-2" data-name="Ellipse 1064" d="M14.9.1C22.887-.1,29.2,5.244,29,12.03S22.164,24.48,14.18,24.679-.115,19.539.085,12.753,6.919.3,14.9.1Z" transform="translate(70.942 62.917) rotate(-80.783)" fill="#a0616a"/>
        <path id="Path_26340-2" data-name="Path 26340" d="M158.905,130.161s0-5.959-4.661-4.682-6.1,3.4-6.1,3.4-1.793,3.4-4.661,3.831-5.379,10.215-5.02,12.347,2.152,7.661-.359,10.215-6.1,6.385-5.02,10.215,4.3,13.62,4.3,13.62-9,1.561-8.266,8.229a16.264,16.264,0,0,1,10.059-3.973c5.734,0,5.02-12.355,5.02-12.355s.359-7.649,1.434-9.778-.359-14.046,5.02-20.43,8.247-10.641,8.247-10.641Z" transform="translate(-70.319 -94.878)" fill="#2f2e41"/>
        <path id="Path_26341-2" data-name="Path 26341" d="M187.029,131.929a14.324,14.324,0,0,1,9.324,9.789c2.511,8.087,1.243,9.592,1.243,9.592s.555,4.87,3.6,6.577.536,8.944.536,8.944.718,7.235,10.4,9.789S200,198.758,200,198.758s1.569-9.243-8.472-9.669,1.966-22.258,1.966-22.258l1.075-14.046s-2.152-16.174-8.606-18.3,1.076-2.554,1.076-2.554h0Z" transform="translate(-99.877 -97.928)" fill="#2f2e41"/>
        <path id="Path_26342-2" data-name="Path 26342" d="M187.995,348.579l-2.476,20-1.27,10.267L182.1,396.21l-2.18,17.6q-3.872-.665-7.648-1.378-6.487-1.224-12.7-2.583l.806-22.332.314-8.672.373-10.267.219-6.078-3.405-15.416s-7.025-15.524-3.768-20.549a2.748,2.748,0,0,1,.605-.643,10.321,10.321,0,0,1,3.91-1.605c4.056-.983,10.065-1.34,15.542-1.432,7.029-.119,13.174.2,13.174.2l.036,1.27.074,2.755.55,21.5Z" transform="translate(-83.482 -185.676)" fill="#2f2e41"/>
        <path id="Path_26343-2" data-name="Path 26343" d="M184.812,348.921l-2.476,20-1.27,10.267-2.153,17.367-9.829,16.22q-6.487-1.224-12.7-2.583-4.568-1-8.981-2.07l9.787-20.263,4.188-8.672,4.953-10.267,2.381-4.928,2.071-4.29,1.516-8,1.166-6.133.269-1.416s-.027-2.226.15-5.214c.273-4.528,1.025-10.818,3.091-13.773a4.163,4.163,0,0,1,1.37-1.318c1.075-.6,3.194-.19,5.85.816l.068,2.755.55,21.5Z" transform="translate(-80.298 -186.017)" fill="#2f2e41"/>
        <path id="Path_26344-2" data-name="Path 26344" d="M171.478,200.513l-.3-.1-14.69-4.927-11.73,18.951,7.82,39.447-2.932,15.856s23.786-7.348,33.235-1.16c0,0,.655-3.526,0-5.244s-1.629-8.865-.655-12.055-1.955-18.278-1.955-18.278.977-10.056-3.258-15.083-5.539-17.4-5.539-17.4h0Z" transform="translate(-78.86 -127.142)" fill="#e6e6e6"/>
        <path id="uuid-cd6b1305-cf39-49fc-bef1-740b2c9d0d0e-108-2" data-name="uuid-cd6b1305-cf39-49fc-bef1-740b2c9d0d0e-108" d="M187.785,375.211c1.053,4.846,4.014,8.128,6.611,7.331s3.85-5.369,2.795-10.216a13.479,13.479,0,0,0-2.289-5.25l-4.678-20.466-8.044,2.813,5.469,19.874a14.8,14.8,0,0,0,.139,5.914h0Z" transform="translate(-99.244 -196.608)" fill="#a0616a"/>
        <path id="Path_26345-2" data-name="Path 26345" d="M176.33,225.364s-4.556-14.613-9.549-13.662-9.546,10.137-9.546,10.137l3.61,51.985,9.911,29.665,10.517-4.921-5.463-29.647.516-43.555h0Z" transform="translate(-85.656 -134.576)" fill="#e6e6e6"/>
        <path id="Path_26346-2" data-name="Path 26346" d="M543.2,70V294.037c-.15.038-.3.07-.456.1q-3.462.746-7.016,1.437-4.22.826-8.559,1.6-3.6.632-7.284,1.227-10.714,1.742-22.006,3.091-3.612.438-7.283.826a640.045,640.045,0,0,1-67.644,3.513q-5.006,0-9.951-.076c-.155,0-.3,0-.455-.006V70Z" transform="translate(-224.742 -69.459)" fill="#f2f2f2" opacity="0.7"/>
        <path id="Path_26347-2" data-name="Path 26347" d="M542.2,143.45v.665l.059-.141a3.513,3.513,0,0,0-.059-.524Zm-130.2,70.589-.455-.437v48.565h.455v43.119c.15.006.3.006.455.006V181.284c-.15.1-.3.19-.455.281v32.472ZM411.55,69V305.279c.15.006.3.011.455.011s.3.006.455.006V70.077H542.206v223.6c.155-.027.3-.059.455-.1s.3-.059.456-.1V69Z" transform="translate(-224.197 -69)" fill="#3f3d56"/>
        <ellipse id="Ellipse_1065-2" data-name="Ellipse 1065" cx="8.65" cy="10.267" rx="8.65" ry="10.267" transform="translate(190.31 149.403)" fill="#3f3d56"/>
        <g id="Group_5505-2" data-name="Group 5505" transform="translate(141.732 75.466)">
          <path id="uuid-340fa4d6-17c0-4cd5-bee8-12f32296eb37-109-2" data-name="uuid-340fa4d6-17c0-4cd5-bee8-12f32296eb37-109" d="M414.81,337.484c3.105,3.385,7.093,4.227,8.908,1.882s.768-6.99-2.338-10.377a10.279,10.279,0,0,0-4.329-2.929l-13.308-14.146-5.459,7.554,13.7,13.14a12.8,12.8,0,0,0,2.828,4.873Z" transform="translate(-358.702 -256.125)" fill="#ffb6b6"/>
          <path id="Path_26348-2" data-name="Path 26348" d="M328.976,214.97s-10.521-9.319-14.274-5.3-3.358,14.67-3.358,14.67L338.2,265.628l21.917,18.487,6.568-10.921-18.178-21.347L328.976,214.97Z" transform="translate(-311.331 -208.666)" fill="#00b0ff"/>
        </g>
        <path id="Path_26349-2" data-name="Path 26349" d="M591.283,392.5v57.233q-3.612.438-7.283.826V392.5Z" transform="translate(-318.142 -217.701)" fill="#3f3d56"/>
        <path id="Path_26350-2" data-name="Path 26350" d="M7.283,392.5v25.99Q3.466,416.485,0,414.38V392.5Z" transform="translate(0 -217.701)" fill="#3f3d56"/>
        <rect id="Rectangle_3543-2" data-name="Rectangle 3543" width="265.403" height="10.267" transform="translate(5.006 182.902)" fill="#00b0ff"/>
        <path id="Path_26351-2" data-name="Path 26351" d="M705.668,126.67s-4.856,3.38-3.263,6.723,3.813,7.9,2.307,9.333-3.993,7.756-3.993,7.756-10.614-1.76-9.618,8.027,5.979,11.12,1.709,15.425,4.442,9.454,4.442,9.454a12.631,12.631,0,0,0,7.39-9.069c1.373-6.843-1.224,5.233-.353,6.1s4.252,6.573,6.645-1.015.024-10.531,3.185-15.01,5.311-11.723,5.217-12.989,3.616-12.822-2.094-17.328a74.415,74.415,0,0,0-11.571-7.406Z" transform="translate(-376.452 -95.51)" fill="#2f2e41"/>
        <g id="Group_5506-2" data-name="Group 5506" transform="translate(279.417 68.637)">
          <path id="uuid-a9d6e0e2-9081-4547-a7f7-3829edb971db-110-2" data-name="uuid-a9d6e0e2-9081-4547-a7f7-3829edb971db-110" d="M622.37,304.363c-2.434,3.256-5.823,4.4-7.568,2.565s-1.186-5.968,1.249-9.224a9.391,9.391,0,0,1,3.528-2.99l10.461-13.639,5.288,5.964L624.453,299.85a11.62,11.62,0,0,1-2.084,4.513h0Z" transform="translate(-613.786 -235.12)" fill="#ffb6b6"/>
          <path id="Path_26352-2" data-name="Path 26352" d="M663.925,201.1s6.345-6.917,9.022-4.589,3.021,9.311,3.021,9.311L660.756,234.9l-21.939,21.949-4.9-6.611,19.331-23.519L663.923,201.1Z" transform="translate(-624.751 -196.03)" fill="#3f3d56"/>
        </g>
        <path id="Path_26353-2" data-name="Path 26353" d="M723.968,173.54l-3.44,14.5h18.863l-6.211-17.866Z" transform="translate(-392.519 -115.507)" fill="#ffb6b6"/>
        <path id="Path_26354-2" data-name="Path 26354" d="M723.968,173.54l-3.44,14.5h18.863l-6.211-17.866Z" transform="translate(-392.519 -115.507)" opacity="0.1"/>
        <path id="Path_26355-2" data-name="Path 26355" d="M717.535,264.958l11.058,31.014-37.433-2.194,2.544-28.82Z" transform="translate(-376.52 -159.075)" fill="#ffb6b6"/>
        <path id="Path_26356-2" data-name="Path 26356" d="M707.425,188.841l15.609-.772,10.4,21.614-9.1,34.736-31.867,3.86,3.451-33.5,1.752-18.99Z" transform="translate(-377.23 -123.733)" fill="#3f3d56"/>
        <path id="Path_26357-2" data-name="Path 26357" d="M727.214,342.587c-.751,4.318-1.566,10.234-2.362,16.648-.414,3.34-.824,6.813-1.216,10.267-1.011,8.856-1.912,17.572-2.508,23.5q-7.429,2.286-15.433,4.35L702.942,369.5l-1.015-10.267-1.052-10.623-.473,10.623-.46,10.267-1.325,29.6q-4.281,1.021-8.7,1.967c-.15.038-.3.07-.456.1s-.3.07-.455.1q-3.462.746-7.016,1.437l-.392-33.2-.123-10.267-.441-37.251,3.85-15.086,1.161-.124,2.963-.319.456-.049.455-.054,29.481-3.177.983-.108s.7,1.627,1.666,4.333c.082.227.169.465.255.708.833,2.377,1.826,5.463,2.732,8.944a82.778,82.778,0,0,1,2.6,15.1A44.217,44.217,0,0,1,727.214,342.587Z" transform="translate(-371.004 -176.593)" fill="#2f2e41"/>
        <g id="Group_5507-2" data-name="Group 5507" transform="translate(348.904 68.72)">
          <path id="uuid-de836ca6-962e-4f27-b85c-b36b0bd5804b-111-2" data-name="uuid-de836ca6-962e-4f27-b85c-b36b0bd5804b-111" d="M774.879,329.689c-.274,4.341-2.384,7.691-4.711,7.486s-3.991-3.895-3.716-8.237a12.39,12.39,0,0,1,1.279-4.916l1.357-18.375,7.251.94L774.232,324.6a12.756,12.756,0,0,1,.647,5.089Z" transform="translate(-766.423 -246.498)" fill="#ffb6b6"/>
          <path id="Path_26358-2" data-name="Path 26358" d="M766.477,206.321s1.514-10.066,4.833-10.139,7.156,5.233,7.156,5.233l2.748,34.074-6.246,33.24L767.694,267l3.371-32.615-4.587-28.063h0Z" transform="translate(-766.453 -196.181)" fill="#3f3d56"/>
        </g>
        <ellipse id="Ellipse_1066-2" data-name="Ellipse 1066" cx="11.36" cy="13.484" rx="11.36" ry="13.484" transform="translate(324.571 34.216)" fill="#ffb6b6"/>
        <path id="Path_26359-2" data-name="Path 26359" d="M727.661,126.7s-1.894,6.292,1.136,7.641,7.195,3.146,6.816,5.394,1.136,8.989,1.136,8.989-9.092,6.741-3.031,13.484,10.6,3.964,9.656,10.521,8.519,3.861,8.519,3.861,3.408-6.292.757-12.584,1.893,4.944,3.031,4.944,6.816,1.8,4.544-5.843-5.68-8.09-5.68-13.933-2.272-13.035-3.031-13.933-4.165-12.584-10.982-11.686a66.86,66.86,0,0,0-12.875,3.146h0Z" transform="translate(-396.085 -94.053)" fill="#2f2e41"/>
        <path id="Rectangle_3544-2" data-name="Rectangle 3544" d="M1.425.6l9.7-.485L10,26.26l-9.7.485Z" transform="translate(270.004 122.196) rotate(-16.453)" fill="#00b0ff"/>
        <path id="Rectangle_3545-2" data-name="Rectangle 3545" d="M1.425.6l9.7-.485L10,26.26l-9.7.485Z" transform="translate(119.777 100.583) rotate(-16.453)" fill="#00b0ff"/>
        <g id="Group_5508-2" data-name="Group 5508" transform="translate(295.149 174.537)">
          <path id="Path_26360-2" data-name="Path 26360" d="M655.624,392.016v53.175q-3.6.632-7.283,1.227v-54.4Z" transform="translate(-648.341 -392.016)" fill="#3f3d56"/>
          <rect id="Rectangle_3546-2" data-name="Rectangle 3546" width="93.011" height="10.267" transform="translate(5.007 8.104)" fill="#00b0ff"/>
        </g>
      </g>
    </g>
  </g>
</svg>
