<svg xmlns="http://www.w3.org/2000/svg" width="18" height="18" viewBox="0 0 18 18">
  <g id="Group_4670" data-name="Group 4670" transform="translate(-9 -102)">
    <path id="Icon_awesome-user-alt" data-name="Icon awesome-user-alt" d="M5,5.625A2.812,2.812,0,1,0,2.188,2.812,2.813,2.813,0,0,0,5,5.625Zm2.5.625H6.424a3.4,3.4,0,0,1-2.848,0H2.5A2.5,2.5,0,0,0,0,8.75v.313A.938.938,0,0,0,.938,10H9.063A.938.938,0,0,0,10,9.063V8.75A2.5,2.5,0,0,0,7.5,6.25Z" transform="translate(13 106)" fill="none" stroke="#000" stroke-width="1"/>
    <g id="Group_4669" data-name="Group 4669" transform="translate(-182 -43)">
      <g id="Ellipse_960" data-name="Ellipse 960" transform="translate(191 145)" fill="none" stroke="#000" stroke-width="1">
        <circle cx="9" cy="9" r="9" stroke="none"/>
        <circle cx="9" cy="9" r="8.5" fill="none"/>
      </g>
    </g>
  </g>
</svg>
