<svg xmlns="http://www.w3.org/2000/svg" width="22.9" height="16.8" viewBox="0 0 22.9 16.8">
  <g id="Group_4684" data-name="Group 4684" transform="translate(-19.6 -168.1)">
    <circle id="Ellipse_962" data-name="Ellipse 962" cx="4.5" cy="4.5" r="4.5" transform="translate(33 170.5)" fill="none" stroke="#000" stroke-width="1"/>
    <line id="Line_776" data-name="Line 776" x1="7" y2="7" transform="translate(34 172)" fill="none" stroke="#000" stroke-width="1"/>
    <path id="Icon_awesome-user-alt" data-name="Icon awesome-user-alt" d="M8,9A4.5,4.5,0,1,0,3.5,4.5,4.5,4.5,0,0,0,8,9Zm4,1H10.278a5.44,5.44,0,0,1-4.556,0H4a4,4,0,0,0-4,4v.5A1.5,1.5,0,0,0,1.5,16h13A1.5,1.5,0,0,0,16,14.5V14A4,4,0,0,0,12,10Z" transform="translate(20 168.5)" fill="none" stroke="#000" stroke-width="0.8"/>
  </g>
</svg>
