<svg xmlns="http://www.w3.org/2000/svg" width="19" height="19" viewBox="0 0 19 19">
  <path id="Icon_material-language" data-name="Icon material-language" d="M11.991,3A9,9,0,1,0,21,12,9,9,0,0,0,11.991,3Zm6.237,5.4H15.573a14.084,14.084,0,0,0-1.242-3.2A7.227,7.227,0,0,1,18.228,8.4ZM12,4.836A12.678,12.678,0,0,1,13.719,8.4H10.281A12.678,12.678,0,0,1,12,4.836ZM5.034,13.8a7.04,7.04,0,0,1,0-3.6H8.076A14.864,14.864,0,0,0,7.95,12a14.864,14.864,0,0,0,.126,1.8Zm.738,1.8H8.427a14.084,14.084,0,0,0,1.242,3.2A7.188,7.188,0,0,1,5.772,15.6ZM8.427,8.4H5.772a7.188,7.188,0,0,1,3.9-3.2A14.084,14.084,0,0,0,8.427,8.4ZM12,19.164A12.678,12.678,0,0,1,10.281,15.6h3.438A12.678,12.678,0,0,1,12,19.164ZM14.106,13.8H9.894A13.241,13.241,0,0,1,9.75,12a13.126,13.126,0,0,1,.144-1.8h4.212A13.126,13.126,0,0,1,14.25,12,13.241,13.241,0,0,1,14.106,13.8Zm.225,5a14.084,14.084,0,0,0,1.242-3.2h2.655a7.227,7.227,0,0,1-3.9,3.2Zm1.593-5A14.863,14.863,0,0,0,16.05,12a14.864,14.864,0,0,0-.126-1.8h3.042a7.04,7.04,0,0,1,0,3.6Z" transform="translate(-2.5 -2.5)" fill="none" stroke="#000" stroke-width="1"/>
</svg>
