<svg xmlns="http://www.w3.org/2000/svg" width="16.2" height="19.024" viewBox="0 0 16.2 19.024">
  <path id="Icon_map-locksmith" data-name="Icon map-locksmith" d="M17.91,8.146H17.1V4.941A4.568,4.568,0,0,0,12.835.72H9.279A4.488,4.488,0,0,0,5.1,4.941V8.146H4.2a.8.8,0,0,0-.6.616v9.453c0,.222.35.328.6.328H17.91c.255,0,.69-.105.69-.328V8.763c0-.222-.435-.616-.69-.616Zm-5.043,8.912H9.248l.759-3.7a1.914,1.914,0,0,1-.759-1.524,1.828,1.828,0,0,1,1.809-1.817,1.777,1.777,0,0,1,1.81,1.756,2.057,2.057,0,0,1-.759,1.6Zm1.608-8.912H7.725V4.941a1.525,1.525,0,0,1,1.59-1.622H12.8a1.6,1.6,0,0,1,1.676,1.622Z" transform="translate(-3 -0.12)" fill="none" stroke="#000" stroke-width="1.2"/>
</svg>
