<svg xmlns="http://www.w3.org/2000/svg" width="18" height="15.234" viewBox="0 0 18 15.234">
  <g id="Icon_ionic-ios-log-out" data-name="Icon ionic-ios-log-out" transform="translate(-3.375 -5.625)">
    <path id="Path_2111" data-name="Path 2111" d="M14.8,18.263a.608.608,0,0,0-.606.606.781.781,0,0,1-.779.779H5.366a.781.781,0,0,1-.779-.779V7.616a.781.781,0,0,1,.779-.779h8.05a.781.781,0,0,1,.779.779.606.606,0,1,0,1.212,0,1.991,1.991,0,0,0-1.991-1.991H5.366A1.991,1.991,0,0,0,3.375,7.616V18.869a1.991,1.991,0,0,0,1.991,1.991h8.05a1.991,1.991,0,0,0,1.991-1.991A.608.608,0,0,0,14.8,18.263Z"/>
    <path id="Path_2112" data-name="Path 2112" d="M20.14,11.006a.6.6,0,0,0-.428-.177.592.592,0,0,0-.428.177.6.6,0,0,0,0,.857L22.1,14.641H11.012a.606.606,0,1,0,0,1.212H22.118l-2.753,2.774a.611.611,0,0,0,0,.857l0,0a.626.626,0,0,0,.424.169.585.585,0,0,0,.428-.177L23.8,15.913a.85.85,0,0,0,0-1.264Z" transform="translate(-2.703 -2)"/>
  </g>
</svg>
