<svg xmlns="http://www.w3.org/2000/svg" width="21.25" height="19.048" viewBox="0 0 21.25 19.048">
  <g id="Group_4668" data-name="Group 4668" transform="translate(-8.5 -293.5)">
    <path id="Icon_awesome-user-alt" data-name="Icon awesome-user-alt" d="M9,10.125A5.062,5.062,0,1,0,3.938,5.062,5.064,5.064,0,0,0,9,10.125Zm3.136,1.125h-.573a6.12,6.12,0,0,1-5.126,0H4.5A4.5,4.5,0,0,0,0,15.75v.563A1.688,1.688,0,0,0,1.688,18l10.449.048s.691-.177.268-1.406a8.893,8.893,0,0,1-.4-3.748C12.111,11.571,12.755,11.25,12.136,11.25Z" transform="translate(9 294)" fill="none" stroke="#000" stroke-width="1"/>
    <path id="Icon_map-locksmith" data-name="Icon map-locksmith" d="M10.278,4.22H9.9V2.709A2.142,2.142,0,0,0,7.91.72H6.25A2.105,2.105,0,0,0,4.3,2.709V4.22H3.882a.375.375,0,0,0-.282.29V8.966c0,.1.163.154.282.154h6.4c.119,0,.322-.05.322-.154V4.511A.428.428,0,0,0,10.278,4.22ZM7.925,8.42H6.236L6.59,6.676a.9.9,0,0,1-.354-.718A.857.857,0,0,1,7.08,5.1a.833.833,0,0,1,.845.828.973.973,0,0,1-.354.752Zm.75-4.2H5.525V2.709a.716.716,0,0,1,.742-.764H7.893a.748.748,0,0,1,.782.764Z" transform="translate(18.9 301.78)" fill="none" stroke="#000" stroke-width="0.5"/>
  </g>
</svg>
