<svg xmlns="http://www.w3.org/2000/svg" width="16.2" height="18.771" viewBox="0 0 16.2 18.771">
  <path id="Icon_awesome-trash-alt" data-name="Icon awesome-trash-alt" d="M1.071,15.924a1.628,1.628,0,0,0,1.607,1.647h9.643a1.628,1.628,0,0,0,1.607-1.647V4.393H1.071Zm9.107-8.786a.536.536,0,1,1,1.071,0v7.688a.536.536,0,1,1-1.071,0Zm-3.214,0a.536.536,0,1,1,1.071,0v7.688a.536.536,0,1,1-1.071,0Zm-3.214,0a.536.536,0,1,1,1.071,0v7.688a.536.536,0,1,1-1.071,0ZM14.464,1.1H10.446L10.132.456A.8.8,0,0,0,9.412,0H5.585a.793.793,0,0,0-.717.456L4.554,1.1H.536A.543.543,0,0,0,0,1.647v1.1a.543.543,0,0,0,.536.549H14.464A.543.543,0,0,0,15,2.746v-1.1A.543.543,0,0,0,14.464,1.1Z" transform="translate(0.6 0.6)" fill="none" stroke="red" stroke-width="1.2"/>
</svg>
