<svg xmlns="http://www.w3.org/2000/svg" xmlns:xlink="http://www.w3.org/1999/xlink" width="50" height="50" viewBox="0 0 50 50">
  <defs>
    <linearGradient id="linear-gradient" x1="0.5" x2="0.5" y2="1" gradientUnits="objectBoundingBox">
      <stop offset="0" stop-color="#74bd81"/>
      <stop offset="1" stop-color="#0c611b"/>
    </linearGradient>
  </defs>
  <g id="Group_4347" data-name="Group 4347" transform="translate(-7182 -6139)">
    <circle id="Ellipse_922" data-name="Ellipse 922" cx="25" cy="25" r="25" transform="translate(7182 6139)" fill="url(#linear-gradient)"/>
    <path id="Icon_awesome-user-edit" data-name="Icon awesome-user-edit" d="M12.3,14.068A7.031,7.031,0,1,0,5.273,7.037,7.031,7.031,0,0,0,12.3,14.068Zm4.922,1.758h-.917a9.563,9.563,0,0,1-8.009,0H7.383A7.385,7.385,0,0,0,0,23.209v2.285a2.638,2.638,0,0,0,2.637,2.637h15.1a2.638,2.638,0,0,1-.142-1.169l.374-3.346.066-.61.434-.434,4.246-4.247a7.308,7.308,0,0,0-5.488-2.5Zm2.489,7.982-.374,3.351a.874.874,0,0,0,.967.967l3.346-.374,7.575-7.575-3.939-3.939-7.575,7.57Zm15.058-9.031L32.691,12.7a1.316,1.316,0,0,0-1.857,0l-2.076,2.077L28.533,15l3.944,3.939,2.3-2.3a1.323,1.323,0,0,0,0-1.862Z" transform="translate(7191.375 6149.932)" fill="#fff"/>
  </g>
</svg>
