<svg xmlns="http://www.w3.org/2000/svg" width="50" height="50" viewBox="0 0 50 50">
  <g id="Group_4631" data-name="Group 4631" transform="translate(-70 -725)">
    <circle id="Ellipse_935" data-name="Ellipse 935" cx="25" cy="25" r="25" transform="translate(70 725)" fill="rgba(0,0,0,0.45)"/>
    <g id="Icon_ionic-md-notifications-off" data-name="Icon ionic-md-notifications-off" transform="translate(83.635 736.834)">
      <path id="Path_2085" data-name="Path 2085" d="M17.735,32.334a2.661,2.661,0,0,0,2.651-2.662h-5.3A2.661,2.661,0,0,0,17.735,32.334Z" transform="translate(-6.101 -5.783)" fill="#fff"/>
      <path id="Path_2086" data-name="Path 2086" d="M8.85,7.326l0,0L6.742,5.223,5.2,6.765,9.23,10.8A8.6,8.6,0,0,0,8.2,14.863v7.321L5.583,24.846v1.325H24.617l2.313,2.322,1.539-1.553-.774-.769h.02Z" transform="translate(-5.2 -3.56)" fill="#fff"/>
      <path id="Path_2087" data-name="Path 2087" d="M26.167,14.715a8.654,8.654,0,0,0-6.648-8.388V5.4a1.982,1.982,0,1,0-3.963,0v.932a8.409,8.409,0,0,0-2.667,1.129L26.167,20.742Z" transform="translate(-5.903 -3.414)" fill="#fff"/>
    </g>
  </g>
</svg>
