<svg xmlns="http://www.w3.org/2000/svg" width="50" height="50" viewBox="0 0 50 50">
  <g id="Group_4665" data-name="Group 4665" transform="translate(-0.494)">
    <circle id="Ellipse_934" data-name="Ellipse 934" cx="25" cy="25" r="25" transform="translate(0.494)" fill="rgba(0,0,0,0.6)"/>
    <path id="Icon_awesome-trash-alt" data-name="Icon awesome-trash-alt" d="M1.623,23.539a2.429,2.429,0,0,0,2.429,2.429H18.669A2.429,2.429,0,0,0,21.1,23.539V6.493H1.623ZM15.429,10.551a.811.811,0,0,1,1.623,0V21.916a.811.811,0,1,1-1.623,0Zm-4.87,0a.811.811,0,0,1,1.623,0V21.916a.811.811,0,0,1-1.623,0Zm-4.87,0a.811.811,0,1,1,1.623,0V21.916a.811.811,0,0,1-1.623,0ZM21.923,1.623H15.829L15.351.674A1.217,1.217,0,0,0,14.26,0h-5.8A1.2,1.2,0,0,0,7.376.674L6.9,1.623H.811A.811.811,0,0,0,0,2.429v1.63a.811.811,0,0,0,.811.811h21.1a.811.811,0,0,0,.811-.811V2.429a.811.811,0,0,0-.811-.806Z" transform="translate(13.681 11.819)" fill="#fff"/>
  </g>
</svg>
