<svg xmlns="http://www.w3.org/2000/svg" xmlns:xlink="http://www.w3.org/1999/xlink" width="50" height="50" viewBox="0 0 50 50">
  <defs>
    <linearGradient id="linear-gradient" x1="0.5" x2="0.5" y2="1" gradientUnits="objectBoundingBox">
      <stop offset="0" stop-color="#acf5ce"/>
      <stop offset="1" stop-color="#369964"/>
    </linearGradient>
  </defs>
  <g id="Group_4594" data-name="Group 4594" transform="translate(-38 -306)">
    <circle id="Ellipse_953" data-name="Ellipse 953" cx="25" cy="25" r="25" transform="translate(38 306)" fill="url(#linear-gradient)"/>
    <g id="Group_4593" data-name="Group 4593" transform="translate(45.5 316.8)">
      <g id="Group_4592" data-name="Group 4592" transform="translate(0 2.206)">
        <g id="Group_4481" data-name="Group 4481">
          <path id="Icon_awesome-user-times" data-name="Icon awesome-user-times" d="M11.2,12.8A6.4,6.4,0,1,0,4.8,6.4a6.4,6.4,0,0,0,6.4,6.4Zm4.478,1.6h-.84a8.7,8.7,0,0,1-7.286,0H6.716A6.718,6.718,0,0,0,0,21.11v2.08a2.4,2.4,0,0,0,2.4,2.4H20a2.4,2.4,0,0,0,2.4-2.4V21.11a6.718,6.718,0,0,0-6.728-6.71Z" fill="#fff"/>
        </g>
      </g>
      <g id="Group_4616" data-name="Group 4616" transform="translate(18.504)">
        <path id="Path_2107" data-name="Path 2107" d="M18.732,28.336a.648.648,0,0,0-.636.51,1.254,1.254,0,0,1-.25.546.946.946,0,0,1-.8.3.962.962,0,0,1-.8-.3,1.254,1.254,0,0,1-.25-.546.648.648,0,0,0-.636-.51h0a.652.652,0,0,0-.636.8,2.388,2.388,0,0,0,4.654,0,.656.656,0,0,0-.636-.8Z" transform="translate(-9.058 -11.876)" fill="#fff"/>
        <path id="Path_2108" data-name="Path 2108" d="M22.571,18.762c-.77-1.016-2.288-1.612-2.288-6.162,0-4.67-2.062-6.548-3.984-7-.18-.046-.31-.106-.31-.3V5.162a1.228,1.228,0,0,0-1.2-1.232h-.03a1.228,1.228,0,0,0-1.2,1.232v.146c0,.186-.13.25-.31.3-1.928.456-3.984,2.328-3.984,7,0,4.55-1.516,5.14-2.288,6.162a1,1,0,0,0,.8,1.6H21.8a1,1,0,0,0,.774-1.6Zm-1.952.29H8.947a.22.22,0,0,1-.166-.366,6.064,6.064,0,0,0,1.052-1.672,11.344,11.344,0,0,0,.716-4.414A7.676,7.676,0,0,1,11.6,8.256a3.212,3.212,0,0,1,1.938-1.382,1.754,1.754,0,0,0,.93-.526.4.4,0,0,1,.6-.01,1.814,1.814,0,0,0,.942.536,3.212,3.212,0,0,1,1.938,1.382A7.676,7.676,0,0,1,18.989,12.6a11.344,11.344,0,0,0,.716,4.414,6.134,6.134,0,0,0,1.076,1.7.2.2,0,0,1-.158.342Z" transform="translate(-6.777 -3.93)" fill="#fff"/>
      </g>
    </g>
  </g>
</svg>
