<svg xmlns="http://www.w3.org/2000/svg" xmlns:xlink="http://www.w3.org/1999/xlink" width="50" height="50" viewBox="0 0 50 50">
  <defs>
    <linearGradient id="linear-gradient" x1="0.5" x2="0.5" y2="1" gradientUnits="objectBoundingBox">
      <stop offset="0" stop-color="#fb9f53"/>
      <stop offset="1" stop-color="#fb7911"/>
    </linearGradient>
  </defs>
  <g id="Group_4595" data-name="Group 4595" transform="translate(-1854 -5201)">
    <g id="Group_4350" data-name="Group 4350" transform="translate(1854 5201)">
      <circle id="Ellipse_924" data-name="Ellipse 924" cx="25" cy="25" r="25" fill="url(#linear-gradient)"/>
      <path id="Icon_awesome-user-cog" data-name="Icon awesome-user-cog" d="M33.538,122.805a6.444,6.444,0,0,0,0-2.34l1.417-.819a.4.4,0,0,0,.181-.467,8.244,8.244,0,0,0-1.824-3.153.4.4,0,0,0-.494-.077l-1.417.819a6.45,6.45,0,0,0-2.027-1.17V113.96a.4.4,0,0,0-.313-.39,8.288,8.288,0,0,0-3.637,0,.4.4,0,0,0-.313.39V115.6a6.45,6.45,0,0,0-2.027,1.17l-1.418-.818a.4.4,0,0,0-.494.077,8.244,8.244,0,0,0-1.824,3.153.4.4,0,0,0,.181.467l1.417.819a6.445,6.445,0,0,0,0,2.34l-1.417.819a.4.4,0,0,0-.181.467,8.286,8.286,0,0,0,1.824,3.154.4.4,0,0,0,.494.077l1.417-.819a6.45,6.45,0,0,0,2.027,1.17v1.637a.4.4,0,0,0,.313.39,8.288,8.288,0,0,0,3.637,0,.4.4,0,0,0,.313-.39v-1.637A6.45,6.45,0,0,0,31.4,126.5l1.417.819a.4.4,0,0,0,.494-.077,8.244,8.244,0,0,0,1.824-3.153.4.4,0,0,0-.181-.467Zm-6.29,1.494a2.664,2.664,0,1,1,2.664-2.664,2.664,2.664,0,0,1-2.664,2.664Zm-14.942-7.938h0ZM23.359,128.8c-.126-.066-.253-.143-.374-.214l-.434.253a2.155,2.155,0,0,1-2.664-.4,10.018,10.018,0,0,1-2.208-3.823,2.148,2.148,0,0,1,.983-2.511l.434-.253q-.008-.214,0-.429l-.434-.252a2.146,2.146,0,0,1-.983-2.511c.05-.159.121-.319.176-.478-.209-.016-.412-.066-.626-.066h-.917a9.563,9.563,0,0,1-8.01,0H7.383A7.385,7.385,0,0,0,0,125.5v2.285a2.638,2.638,0,0,0,2.637,2.637H21.975a2.634,2.634,0,0,0,1.494-.467,2.14,2.14,0,0,1-.11-.648Z" transform="translate(9.082 -91.36)" fill="#fff"/>
    </g>
    <circle id="Ellipse_960" data-name="Ellipse 960" cx="7.08" cy="7.08" r="7.08" transform="translate(1868.063 5212.133)" fill="#fff"/>
  </g>
</svg>
