<svg xmlns="http://www.w3.org/2000/svg" width="50" height="50" viewBox="0 0 50 50">
  <g id="Group_5460" data-name="Group 5460" transform="translate(17110 10124)">
    <g id="Cusmotics" transform="translate(-17172 -10186)">
      <g id="Group_4927" data-name="Group 4927" transform="translate(62 62)">
        <g id="Group_4924" data-name="Group 4924">
          <circle id="Ellipse_994" data-name="Ellipse 994" cx="25" cy="25" r="25" fill="#fff"/>
        </g>
        <g id="Group_4926" data-name="Group 4926" transform="translate(2.002 2.393)">
          <g id="Group_4925" data-name="Group 4925">
            <path id="Path_2219" data-name="Path 2219" d="M122.891,107.8a22.572,22.572,0,1,1-22.572,22.572A22.572,22.572,0,0,1,122.891,107.8m0-.039a22.543,22.543,0,1,0,8.8,1.777,22.543,22.543,0,0,0-8.8-1.777Z" transform="translate(-100.28 -107.76)" fill="#a3d9ea"/>
          </g>
        </g>
      </g>
    </g>
    <g id="Group_5458" data-name="Group 5458" transform="translate(-34.523 104.5)">
      <path id="Path_26216" data-name="Path 26216" d="M-.051-.633A18.143,18.143,0,0,0,1.658,7.719c1.335,2.582,4.79,5.078,6.574,6.3,4,2.75,8.15-3.454,8.15-3.454" transform="translate(-17061.5 -10204.5)" fill="none" stroke="#33b5e5" stroke-linecap="round" stroke-width="0.8"/>
      <path id="Path_26217" data-name="Path 26217" d="M10.15.152A10.378,10.378,0,0,1,6.738,2.889C5.163,3.774,1.613,4.319.5,7.106A10.924,10.924,0,0,0,.266,15.22c.865,1.858,2.281,2.485,2.348,5.847s-3.59,4.871-3.59,4.871" transform="translate(-17064.5 -10215.5)" fill="none" stroke="#33b5e5" stroke-linecap="round" stroke-width="0.8"/>
      <path id="Path_26218" data-name="Path 26218" d="M0,0S.461,2.535,3.461,5.785c1.485,1.609,5.089,3.349,7.078,4.931C12.084,11.945,12,13,12,13" transform="translate(-17050.5 -10217.5)" fill="none" stroke="#33b5e5" stroke-linecap="round" stroke-width="0.8"/>
      <path id="Path_26219" data-name="Path 26219" d="M-.443-.286A26.967,26.967,0,0,1,3.379,0,3.835,3.835,0,0,1,4.82.62" transform="translate(-17058.5 -10209.5)" fill="none" stroke="#33b5e5" stroke-width="0.8"/>
      <path id="Path_26220" data-name="Path 26220" d="M0,1A1.77,1.77,0,0,1,.818-.018,5.032,5.032,0,0,1,2.6-.42" transform="translate(-17049.5 -10209.5)" fill="none" stroke="#33b5e5" stroke-width="0.8"/>
      <path id="Path_26221" data-name="Path 26221" d="M6,0A16.593,16.593,0,0,1,2.77.409,4.022,4.022,0,0,1,1.328.093,4.288,4.288,0,0,1,.053-.7" transform="translate(-17059.5 -10205.5)" fill="none" stroke="#33b5e5" stroke-linecap="round" stroke-width="0.8"/>
      <path id="Path_26222" data-name="Path 26222" d="M.053,0a16.593,16.593,0,0,0,3.23.409A4.022,4.022,0,0,0,4.725.093,4.288,4.288,0,0,0,6-.7" transform="translate(-17048.553 -10205.5)" fill="none" stroke="#33b5e5" stroke-linecap="round" stroke-width="0.8"/>
      <path id="Path_26223" data-name="Path 26223" d="M0,0S.721,1.044,1.471,1.044,3,0,3,0" transform="translate(-17052.5 -10200.5)" fill="none" stroke="#33b5e5" stroke-linecap="round" stroke-width="0.8"/>
      <path id="Path_26224" data-name="Path 26224" d="M.258-.657A4.5,4.5,0,0,0,2.5,0,3.232,3.232,0,0,0,4.617-.893" transform="translate(-17053.5 -10193.5)" fill="none" stroke="#33b5e5" stroke-linecap="round" stroke-width="0.8"/>
      <g id="Path_26225" data-name="Path 26225" transform="translate(-17054 -10198)" fill="none">
        <path d="M1.047.662C1.585.393,2.14.906,2.973.888a4.227,4.227,0,0,1,2.262,0A5.3,5.3,0,0,1,6.369,1.956a8.962,8.962,0,0,1-.9.656,10.484,10.484,0,0,1-2.5.362A13.694,13.694,0,0,1,.549,2.78S-.5,2.469-.605,1.956C-.7,1.858.037,1.167,1.047.662Z" stroke="none"/>
        <path d="M 1.392299175262451 1.383838653564453 C 1.046628952026367 1.557705879211426 0.7482132911682129 1.751086235046387 0.5227007865905762 1.917591214179993 C 0.594670295715332 1.949322938919067 0.6691851615905762 1.978456974029541 0.7397193908691406 2.001678943634033 C 0.9477486610412598 2.037453651428223 1.887708187103271 2.18739128112793 2.963155269622803 2.174666881561279 C 3.948789119720459 2.162961959838867 4.87204647064209 1.943323612213135 5.157695770263672 1.868907570838928 C 5.166519641876221 1.863205432891846 5.175742626190186 1.857142567634583 5.185334205627441 1.850744366645813 C 5.059571743011475 1.730632185935974 4.953089714050293 1.641848921775818 4.892905235290527 1.611156940460205 C 4.751275539398193 1.544306874275208 4.592445373535156 1.513186931610107 4.393035411834717 1.51319694519043 C 4.158445358276367 1.513206958770752 3.902765274047852 1.557586908340454 3.655515432357788 1.600496888160706 C 3.446285247802734 1.636806964874268 3.22993540763855 1.674356937408447 3.018075227737427 1.686406970024109 L 2.990265369415283 1.687506914138794 C 2.495798826217651 1.698394179344177 2.093920230865479 1.576205849647522 1.775445222854614 1.478986859321594 C 1.631692886352539 1.435104966163635 1.469074249267578 1.385468721389771 1.392299175262451 1.383838653564453 M 1.388498306274414 0.5837986469268799 C 1.829094409942627 0.583798885345459 2.314032316207886 0.9020187854766846 2.972655296325684 0.8876969814300537 C 3.583305358886719 0.8529665470123291 4.440635204315186 0.5130462646484375 5.234375476837158 0.8876969814300537 C 5.662815570831299 1.089926958084106 6.369145393371582 1.956056952476501 6.369145393371582 1.956056952476501 C 6.369145393371582 1.956056952476501 5.758785247802734 2.457106828689575 5.472655296325684 2.612306833267212 C 5.472655296325684 2.612306833267212 4.288085460662842 2.95898699760437 2.972655296325684 2.974606990814209 C 1.657231330871582 2.99023699760437 0.548825740814209 2.780276775360107 0.5488252639770508 2.780276775360107 C 0.5488252639770508 2.780276775360107 -0.4961848258972168 2.468826770782471 -0.6054644584655762 1.956056952476501 C -0.6983547210693359 1.857666969299316 0.03737545013427734 1.166857004165649 1.046875476837158 0.662106990814209 C 1.159216403961182 0.6059365272521973 1.272351741790771 0.5837986469268799 1.388498306274414 0.5837986469268799 Z" stroke="none" fill="#33b5e5"/>
      </g>
      <g id="Group_5457" data-name="Group 5457" transform="translate(-29683.91 5088.75) rotate(99)">
        <path id="Path_26228" data-name="Path 26228" d="M3.594.552,0,2.037" transform="translate(-17083.5 -10105.5)" fill="none" stroke="#33b5e5" stroke-width="0.8"/>
        <g id="Rectangle_3510" data-name="Rectangle 3510" transform="translate(-17083.346 -10101.353) rotate(-22)" fill="none" stroke="#33b5e5" stroke-width="0.8">
          <rect width="5.432" height="2.037" rx="1.019" stroke="none"/>
          <rect x="0.4" y="0.4" width="4.632" height="1.237" rx="0.619" fill="none"/>
        </g>
        <g id="Path_26227" data-name="Path 26227" transform="translate(-17078.648 -10101.199) rotate(66)" fill="none">
          <path d="M-.087.212,6.3.28,10.19,1.2,6.918,2.508l-.477.19-6.486.2Z" stroke="none"/>
          <path d="M 0.725438117980957 1.020861864089966 L 0.7418060302734375 2.076498985290527 L 6.275229454040527 1.903240561485291 L 7.543759346008301 1.39700710773468 L 6.202696323394775 1.078878879547119 L 0.725438117980957 1.020861864089966 M -0.08719253540039062 0.2122044563293457 L 6.3004469871521 0.2798645496368408 L 10.18964672088623 1.202464461326599 L 6.440987110137939 2.698444604873657 L -0.04549312591552734 2.901544570922852 L -0.08719253540039062 0.2122044563293457 Z" stroke="none" fill="#33b5e5"/>
        </g>
        <g id="Path_26226" data-name="Path 26226" transform="matrix(0.921, -0.391, 0.391, 0.921, -17082.777, -10104.013)" fill="none">
          <path d="M0,0H2.037L2.018,2.537a6.841,6.841,0,0,1-.973.075,6.566,6.566,0,0,1-1.029-.1Z" stroke="none"/>
          <path d="M 0.8051908016204834 0.8000015020370483 L 0.8117012977600098 1.805540680885315 C 0.9479284286499023 1.813408374786377 1.089917302131653 1.814207077026367 1.223355650901794 1.809282541275024 L 1.231029033660889 0.8000015020370483 L 0.8051908016204834 0.8000015020370483 M -2.384185791015625e-06 1.430511474609375e-06 L 2.037137508392334 1.430511474609375e-06 L 2.017847537994385 2.537211418151855 C 2.017847537994385 2.537211418151855 1.55425763130188 2.61268162727356 1.044967651367188 2.61268162727356 C 0.5356875658035278 2.61268162727356 0.01629757881164551 2.517511606216431 0.01629757881164551 2.517511606216431 L -2.384185791015625e-06 1.430511474609375e-06 Z" stroke="none" fill="#33b5e5"/>
        </g>
      </g>
    </g>
  </g>
</svg>
