<svg xmlns="http://www.w3.org/2000/svg" width="50" height="50" viewBox="0 0 50 50">
  <g id="Group_4970" data-name="Group 4970" transform="translate(-3999 -6618)">
    <circle id="Ellipse_834" data-name="Ellipse 834" cx="25" cy="25" r="25" transform="translate(3999 6618)" fill="#33b5e5"/>
    <circle id="Ellipse_834-2" data-name="Ellipse 834" cx="22.49" cy="22.49" r="22.49" transform="translate(4001.51 6620.51)" fill="none" stroke="#fff" stroke-width="0.3"/>
    <rect id="Rectangle_2905" data-name="Rectangle 2905" width="1.621" height="15.533" transform="translate(4026.258 6635.233)" fill="#fff"/>
    <rect id="Rectangle_2906" data-name="Rectangle 2906" width="1.621" height="15.533" transform="translate(4030.285 6635.207)" fill="#fff"/>
    <path id="Path_1966" data-name="Path 1966" d="M-124.234,96.026V94.365a5.562,5.562,0,0,1,2.833-.934c1.837-.148,3.378.327,3.906,1.572,1.012.514.493,9.05.493,9.05h-1.621l.04-1.633-.887-.251.2-.223c.059-.066.216-.3.216-.3s.1-.173.182-.345a3.54,3.54,0,0,0,.135-.344s.06-.218.1-.414a2.916,2.916,0,0,0,.05-.37l.014-1.42-1.215.166-1.1.151-.672.109a5.636,5.636,0,0,0-.662.171,2.974,2.974,0,0,0-.7.334,1.627,1.627,0,0,0-.414.463,2.085,2.085,0,0,0-.2.715,3.409,3.409,0,0,0-.015.435,1.6,1.6,0,0,0,.08.445.928.928,0,0,0,.12.3,2.282,2.282,0,0,0,.241.329,1.8,1.8,0,0,0,.459.342,2.122,2.122,0,0,0,.765.248,3.917,3.917,0,0,0,1.412-.146,3.608,3.608,0,0,0,1.021-.667l.882.265h-.132a4.446,4.446,0,0,1-.9,1.12,3.537,3.537,0,0,1-1.193.615,4.129,4.129,0,0,1-.665.126,4.649,4.649,0,0,1-.648.016,1.847,1.847,0,0,1-.211-.016,2.982,2.982,0,0,1-1.094-.233,1.6,1.6,0,0,1-.723-.419,2.083,2.083,0,0,1-.471-.475c-.174-.21,0,.053-.226-.359a2.442,2.442,0,0,1-.265-.749,2.844,2.844,0,0,1-.063-.431,4.951,4.951,0,0,1,0-.515,2.106,2.106,0,0,1,.017-.319c.023-.178.074-.394.074-.394s.033-.129.078-.261.1-.27.1-.27a2.757,2.757,0,0,1,.13-.254,2.5,2.5,0,0,1,.151-.226,2.117,2.117,0,0,1,.172-.217,2.783,2.783,0,0,1,.217-.208s.1-.088.234-.187.309-.209.309-.209a5.692,5.692,0,0,1,.571-.258,4.884,4.884,0,0,1,.636-.2c.448-.129,3.89-.6,3.89-.6s-.034-.261-.071-.571-.1-.663-.1-.663a2.07,2.07,0,0,0-2.257-1.479A7.245,7.245,0,0,0-124.234,96.026Z" transform="translate(4141.272 6546.431)" fill="#fff"/>
  </g>
</svg>
