<svg xmlns="http://www.w3.org/2000/svg" width="50" height="50" viewBox="0 0 50 50">
  <g id="Barber" transform="translate(-62 -62)">
    <g id="Group_4920" data-name="Group 4920" transform="translate(62 62)">
      <circle id="Ellipse_993" data-name="Ellipse 993" cx="25" cy="25" r="25" transform="translate(0 0)" fill="#fff"/>
    </g>
    <g id="Group_4923" data-name="Group 4923" transform="translate(64.132 64.393)">
      <g id="Group_4921" data-name="Group 4921" transform="translate(16.867 4.091)">
        <path id="Path_2205" data-name="Path 2205" d="M499.062,189.179a2.068,2.068,0,0,0,.329-1.113,2.086,2.086,0,1,0-4.171,0,2.068,2.068,0,0,0,.329,1.113,5.026,5.026,0,0,1,3.513,0Zm-2.021-2.92c.009-.205.571-.122.7-.1a1.69,1.69,0,0,1,.819.4.617.617,0,0,1,.222.336c.006.107-.1.175-.391.146C498.165,187.027,497.021,186.691,497.041,186.259Z" transform="translate(-491.561 -185.98)" fill="#009fe3"/>
        <path id="Path_2206" data-name="Path 2206" d="M455.383,241.407a5.009,5.009,0,0,0-6.253,2.484h8.993A5.028,5.028,0,0,0,455.383,241.407Zm-1.9.011a4.843,4.843,0,0,0-3.528,1.524,4.846,4.846,0,0,1,7.9.785h-.244A4.845,4.845,0,0,0,453.478,241.418Z" transform="translate(-447.882 -238.208)" fill="#009fe3"/>
        <path id="Path_2207" data-name="Path 2207" d="M453.617,843.451a5.009,5.009,0,0,0,4.5-2.8H449.12A5.01,5.01,0,0,0,453.617,843.451Zm3.981-2.637h.244a4.846,4.846,0,0,1-7.9.785,4.846,4.846,0,0,0,7.657-.785Z" transform="translate(-447.872 -806.41)" fill="#009fe3"/>
        <path id="Path_2208" data-name="Path 2208" d="M446.7,357.733a.531.531,0,0,1,.129.017V333.23a.564.564,0,0,1-.129.017h-.361v24.476h-9.33V333.247h-.361a.53.53,0,0,1-.129-.017v24.52a.562.562,0,0,1,.129-.017Z" transform="translate(-435.931 -325.529)" fill="#009fe3"/>
        <path id="Path_2209" data-name="Path 2209" d="M519.98,752.612h5.015V750.29l-2.519,1.167Z" transform="translate(-515.026 -720.776)" fill="#009fe3"/>
        <path id="Path_2210" data-name="Path 2210" d="M460.752,428.023l2.495-1.19V424.64l-2.495,1.19-3.365,1.605-2.537,1.211v2.193l2.537-1.21Z" transform="translate(-453.302 -412.158)" fill="#009fe3"/>
        <path id="Path_2211" data-name="Path 2211" d="M454.85,598.539l2.537-1.21,3.365-1.606,2.495-1.19V592.34l-2.495,1.19-3.365,1.606-2.537,1.21Z" transform="translate(-453.302 -571.087)" fill="#009fe3"/>
        <path id="Path_2212" data-name="Path 2212" d="M454.85,344.786v2.194l2.537-1.21,3.365-1.606,2.495-1.19V340.78l-2.495,1.191-3.365,1.605Z" transform="translate(-453.302 -332.684)" fill="#009fe3"/>
        <path id="Path_2213" data-name="Path 2213" d="M463.246,678.383V676.19l-2.495,1.19-3.365,1.606-2.537,1.21v2.193l2.537-1.21,3.365-1.606Z" transform="translate(-453.302 -650.551)" fill="#009fe3"/>
        <path id="Path_2214" data-name="Path 2214" d="M459.923,340.9H454.85v2.323l2.537-1.162Z" transform="translate(-453.302 -332.797)" fill="#009fe3"/>
        <path id="Path_2215" data-name="Path 2215" d="M454.85,514.689l2.537-1.21,3.365-1.606,2.495-1.19V508.49l-2.495,1.19-3.365,1.606-2.537,1.21Z" transform="translate(-453.302 -491.622)" fill="#009fe3"/>
        <path id="Path_2216" data-name="Path 2216" d="M426.339,299.632h9.691a.53.53,0,0,0,.129-.017.9.9,0,0,0,.589-.919.852.852,0,0,0-.718-.936H425.978a.852.852,0,0,0-.718.936.9.9,0,0,0,.589.919.56.56,0,0,0,.129.017Zm-.913-.854c0-.027,0-.054,0-.082,0-.425.249-.772.554-.772h10.053c.3,0,.554.348.554.772,0,.028,0,.055,0,.082-.03-.387-.266-.69-.551-.69H425.978C425.693,298.088,425.456,298.392,425.427,298.778Z" transform="translate(-425.26 -291.914)" fill="#009fe3"/>
        <path id="Path_2217" data-name="Path 2217" d="M436.16,801.747a.564.564,0,0,0-.129-.017H425.978a.532.532,0,0,0-.129.017.9.9,0,0,0-.589.919.852.852,0,0,0,.718.936h10.053a.852.852,0,0,0,.718-.936A.9.9,0,0,0,436.16,801.747Zm.425.919h0c0,.425-.249.773-.554.773H425.978c-.3,0-.554-.348-.554-.773h0c0-.028,0-.055,0-.082.03.386.266.69.551.69h10.053c.285,0,.522-.3.551-.69C436.584,802.611,436.585,802.638,436.585,802.666Z" transform="translate(-425.26 -769.526)" fill="#009fe3"/>
      </g>
      <g id="Group_4922" data-name="Group 4922" transform="translate(0 0)">
        <path id="Path_2218" data-name="Path 2218" d="M125.371,107.8A22.572,22.572,0,1,1,102.8,130.371,22.572,22.572,0,0,1,125.371,107.8m0-.039a22.543,22.543,0,1,0,8.8,1.777,22.465,22.465,0,0,0-8.8-1.777Z" transform="translate(-102.76 -107.76)" fill="#a3d9ea"/>
      </g>
    </g>
  </g>
</svg>
