<svg xmlns="http://www.w3.org/2000/svg" width="50" height="50" viewBox="0 0 50 50">
  <g id="Group_4972" data-name="Group 4972" transform="translate(-4119 -6618)">
    <g id="Group_4924" data-name="Group 4924" transform="translate(4119 6618)">
      <circle id="Ellipse_994" data-name="Ellipse 994" cx="25" cy="25" r="25" fill="#33b5e5"/>
    </g>
    <g id="Group_4965" data-name="Group 4965">
      <path id="Path_2220" data-name="Path 2220" d="M378.721,300.818a4.629,4.629,0,0,1-2.842-.973c-6.957-5.393-5.559-12-5.5-12.279.072-.315,1.9-7.7,14.4-9.438a.509.509,0,0,1,.394.113c.158.133,3.84,3.32,1.993,10.134.176,1.966.007,7.113-5.611,11.469A4.632,4.632,0,0,1,378.721,300.818Zm-.692-19.744c-5.624,2.65-6.649,6.665-6.661,6.718-.055.249-1.3,6.27,5.13,11.256a3.628,3.628,0,0,0,4.446,0c6.239-4.837,5.222-10.786,5.135-11.232C384.468,283.38,379.105,281.426,378.029,281.074Zm1.363-.578c1.9.768,5.436,2.574,7.165,5.9.624-4.342-1.289-6.65-1.87-7.238A25.118,25.118,0,0,0,379.392,280.5Z" transform="translate(3764.892 6351.18)" fill="#fff"/>
      <path id="Path_2221" data-name="Path 2221" d="M361.7,207.711a.5.5,0,0,1-.468-.316,11.009,11.009,0,0,1,.248-8.2c1.324-2.762,3.988-4.767,7.918-5.959a.5.5,0,0,1,.293.965c-3.648,1.106-6.1,2.933-7.3,5.429a10.117,10.117,0,0,0-.222,7.39.5.5,0,0,1-.28.656A.5.5,0,0,1,361.7,207.711Z" transform="translate(3774.071 6431.652)" fill="#fff"/>
      <path id="Path_2222" data-name="Path 2222" d="M471.4,151.939a.5.5,0,0,1-.291-.917c.2-.142,1.885-1.442.485-3.768-1.029-1.709-4.3-2.779-6.6-2.162a3.106,3.106,0,0,0-2.436,3.225.513.513,0,0,1-.514.5.5.5,0,0,1-.5-.514,4.088,4.088,0,0,1,3.184-4.181c2.723-.73,6.478.542,7.727,2.616a3.668,3.668,0,0,1-.77,5.115A.509.509,0,0,1,471.4,151.939Z" transform="translate(3678.349 6478.375)" fill="#fff"/>
      <path id="Path_2223" data-name="Path 2223" d="M424.174,668.52c-3.355,0-5.984-1.5-5.984-3.408a.505.505,0,0,1,.217-.415,4.456,4.456,0,0,0,1.705-4.444.507.507,0,0,1,.1-.424.524.524,0,0,1,.735-.057c.343.311.671.587,1,.845a3.629,3.629,0,0,0,4.447,0c.333-.258.661-.534,1-.845a.522.522,0,0,1,.734.058.5.5,0,0,1,.1.423,4.456,4.456,0,0,0,1.705,4.444.5.5,0,0,1,.217.415C430.158,667.024,427.529,668.52,424.174,668.52Zm-4.946-3.174c.255,1.067,2.215,2.165,4.946,2.165s4.691-1.1,4.946-2.165a5.171,5.171,0,0,1-1.967-4.039l-.139.108a4.636,4.636,0,0,1-5.683,0l-.139-.108A5.165,5.165,0,0,1,419.228,665.347Z" transform="translate(3719.439 5989.609)" fill="#fff"/>
      <path id="Path_2224" data-name="Path 2224" d="M536.789,758.373a.5.5,0,0,1-.349-.14,9.865,9.865,0,0,0-6.855-2.763h-.2c-.416,1.664-2.868,2.9-5.922,2.9a.5.5,0,0,1,0-1.009c2.931,0,4.975-1.264,4.975-2.4a.5.5,0,0,1,.5-.5h.641a10.87,10.87,0,0,1,7.554,3.044.5.5,0,0,1-.35.869Z" transform="translate(3620.149 5899.757)" fill="#fff"/>
      <path id="Path_2225" data-name="Path 2225" d="M268.7,758.373a.5.5,0,0,1-.349-.869,10.868,10.868,0,0,1,7.553-3.044h.641a.5.5,0,0,1,.5.5c0,1.134,2.043,2.4,4.974,2.4a.5.5,0,1,1,0,1.009c-3.054,0-5.505-1.24-5.922-2.9h-.2a9.863,9.863,0,0,0-6.855,2.763A.5.5,0,0,1,268.7,758.373Z" transform="translate(3861.585 5899.757)" fill="#fff"/>
    </g>
    <g id="Group_3694" data-name="Group 3694" transform="translate(4121.51 6620.51)">
      <circle id="Ellipse_834" data-name="Ellipse 834" cx="22.49" cy="22.49" r="22.49" transform="translate(0 0)" fill="none" stroke="#fff" stroke-width="0.3"/>
    </g>
  </g>
</svg>
