<svg xmlns="http://www.w3.org/2000/svg" width="50" height="50" viewBox="0 0 50 50">
  <g id="Group_4973" data-name="Group 4973" transform="translate(-4179 -6618)">
    <circle id="Ellipse_995" data-name="Ellipse 995" cx="25" cy="25" r="25" transform="translate(4179 6618)" fill="#33b5e5"/>
    <g id="Group_4930" data-name="Group 4930" transform="translate(4186.462 6630.955)">
      <path id="Path_2226" data-name="Path 2226" d="M285.156,688.48c-.258.02-.511.1-.767.142a6.008,6.008,0,0,1-3.059-.428c-.191-.066-.423-.18-.428-.382-.006-.229.263-.277.444-.357.63-.28,1.262-.554,1.892-.833.3-.133.638-.294.467-.689s-.519-.239-.82-.11c-.849.36-1.688.748-2.552,1.068a30.051,30.051,0,0,1-7.313,1.664l-.005-.014-.021.017c-.111.012-.221.026-.333.037a29.411,29.411,0,0,1-10.484-.993,28.872,28.872,0,0,1-4.762-1.807c-.335-.156-.671-.169-.838.156-.189.365.223.46.433.627a.768.768,0,0,0,.3.178c1.073.205,1.248.924,1.286,1.9a6.276,6.276,0,0,0,2.043,4.265c.223.221.462.294.683.117.237-.191.181-.47,0-.7-.106-.136-.23-.259-.345-.389a5.708,5.708,0,0,1-1.518-3.6c-.012-.229-.083-.478.26-.535a2.207,2.207,0,0,1,2,1.32,6.964,6.964,0,0,0,3.233,4.319.473.473,0,0,0,.731-.124c.26-.329-.052-.463-.208-.634a2.016,2.016,0,0,0-.37-.222,6.094,6.094,0,0,1-2.311-2.942c-.091-.244-.345-.677.13-.777a2.644,2.644,0,0,1,2.487,1.416,7.1,7.1,0,0,0,3.482,3.36c.359.162.848.384,1.069-.081.229-.483-.349-.558-.63-.759-.066-.047-.174-.032-.248-.072a5.511,5.511,0,0,1-2.858-3.083c1.676-.216,1.824-.153,2.823,1a4.754,4.754,0,0,0,.988.968c.03.019.059.039.087.059a7.026,7.026,0,0,0,2.171,1.51c.359.162.848.384,1.069-.081.229-.483-.349-.558-.63-.759-.066-.047-.174-.032-.248-.072a5.8,5.8,0,0,1-2.62-2.505c.018-.013.036-.024.054-.034.682-.375,2.436.151,3.138.882h0a6.99,6.99,0,0,0,2.637,2.038c.359.162.848.384,1.069-.081.229-.483-.349-.558-.63-.759-.066-.047-.174-.032-.248-.072a6.18,6.18,0,0,1-2.35-2.027,2.825,2.825,0,0,1,3.355.436,5.958,5.958,0,0,0,4.242,1.187c.351-.017.872.027.848-.5-.021-.461-.488-.379-.83-.376-.261,0-.523.018-.782,0a6.2,6.2,0,0,1-2.921-.985c-.228-.147-.62-.439-.1-.593.984-.292,1.962-.773,3.037-.066a6.939,6.939,0,0,0,4.871.718c.362-.045.808-.181.708-.691C285.86,688.261,285.448,688.457,285.156,688.48Z" transform="translate(-253.816 -666.01)" fill="#fff"/>
      <path id="Path_2227" data-name="Path 2227" d="M241.921,320.415c-2.137-1.044-6.388-2.669-8.534-3.694-.583-.278-1.169-.55-1.743-.845a33.969,33.969,0,0,1,6.736,2.46c.259.123.511.355.763.046s.105-.609-.129-.851c-.62-.642-1.233-1.292-1.885-1.9-4.229-3.935-9.082-6.326-15.015-5.87a80.116,80.116,0,0,0-9.293,1.214c-2.5.49-4.987,1-7.455,1.621a.778.778,0,0,0-.694.9c.028,1.392.009,2.784.01,4.176q0,2.175,0,4.35c0,.627.2.874.845.528,1.041-.562,2.089-1.113,3.159-1.617a74.98,74.98,0,0,1,8.664-3.476,47.288,47.288,0,0,1,4.921-1.323,3.743,3.743,0,0,0-.283.744c0,.017-.01.033-.016.049.027.028.055.054.083.078a2.337,2.337,0,0,0,.415.271c.257.138.527.247.79.37a1.8,1.8,0,0,1,.452.09,66.519,66.519,0,0,1,6.81,2.343c2.268,1.036,6.607,2.749,8.854,3.832.339.164.682.322,1.02.488.231.113.452.152.6-.108.172-.3,0-.491-.249-.629-.2-.111-.413-.211-.622-.312-2.194-1.059-6.5-2.71-8.691-3.768-1.511-.729-1.485-.716-.76-2.208.309-.636.623-.767,1.275-.443,2.493,1.238,7.117,3.026,9.63,4.224.283.135.654.475.9.015C242.773,320.634,242.221,320.562,241.921,320.415Zm-8.872-6.813c.963.628,1.857,1.363,2.761,2.077.2.158-3.844-.72-6.224-1.084-1.263-.913-2.647-1.639-3.891-2.586-.933-.71-1.2-.61-1.664.476a2.671,2.671,0,0,1-.335.581.007.007,0,0,0,0,0c-.275.566-.632,1.09-.883,1.663l.98-4.066A16.213,16.213,0,0,1,233.049,313.6Zm-10.274,1.286.01,0c-.017.074-.039.144-.061.214Zm7.174,2c-.874,1.78-.842,1.762-2.733,1.036-1.051-.4-2.142-.7-3.223-1.024-.6-.178-.871-.446-.6-.99a1.893,1.893,0,0,1,.1-.178,6.254,6.254,0,0,0,.425-.845c.049-.109.1-.217.149-.324.914-1.9.917-1.9,2.676-.773.365.233.725.473,1.086.712.488.324.978.646,1.473.957.116.073.232.147.349.219C230.2,316.012,230.217,316.342,229.949,316.889Z" transform="translate(-204.672 -309.707)" fill="#fff"/>
    </g>
    <g id="Group_3694" data-name="Group 3694" transform="translate(4181.51 6620.51)">
      <circle id="Ellipse_834" data-name="Ellipse 834" cx="22.49" cy="22.49" r="22.49" transform="translate(0 0)" fill="none" stroke="#fff" stroke-width="0.3"/>
    </g>
  </g>
</svg>
