<svg xmlns="http://www.w3.org/2000/svg" width="50" height="50" viewBox="0 0 50 50">
  <g id="Group_4974" data-name="Group 4974" transform="translate(-4239 -6618)">
    <circle id="Ellipse_996" data-name="Ellipse 996" cx="25" cy="25" r="25" transform="translate(4239 6618)" fill="#33b5e5"/>
    <g id="Group_4934" data-name="Group 4934" transform="translate(4247.667 6625.065)">
      <path id="Path_2229" data-name="Path 2229" d="M290,225.868c-.248-.065-.578-.145-.5-.468.3-1.22.287-2.57,1.167-3.579q6.456-7.407,12.947-14.783c2.109-2.407,4.205-4.825,6.323-7.224.388-.439.377-.7-.149-1.007a19.49,19.49,0,0,1-2.237-1.446c-.607-.473-.973-.3-1.386.222-1.882,2.4-17.222,21.654-18.143,22.747a2.362,2.362,0,0,0-.544,2.126c.144.7.3,1.394.45,2.091.1.476.02.717-.53.471-.789-.351-1.593-.669-2.375-1.036-.287-.134-.561-.379-.749.055-.163.377.113.532.428.661.916.376,1.806.825,2.741,1.143.046.016.087.031.128.048a.086.086,0,0,1,.03-.008,2.414,2.414,0,0,1,1.228.46,3.3,3.3,0,0,0,.735.234c.256.06.515.111.771.168a.064.064,0,0,1,.05.043,1.463,1.463,0,0,0,.15.049c.819.191,1.635.415,2.467.53m-3.971-3.4a.276.276,0,0,1-.251.248c-.185.014-.167-.145-.192-.263a10.942,10.942,0,0,0-.3-1.337,1.765,1.765,0,0,1,.388-1.837c1.745-2.147,3.471-4.31,5.2-6.467l6.978-8.716a.533.533,0,0,0,.187-.234l3.168-3.958-.07.041q.8-1.008,1.607-2.016c1.229-1.534,1.23-1.525,2.889-.426.418.277.516.5.133.928-1.292,1.435-2.567,2.885-3.8,4.369-.437.526-2.586,2.925-2.928,3.314-3.365,3.839-6.76,7.651-10.094,11.516-1.042,1.209-2.435,2.2-2.736,3.94C289.158,223.369,289.089,223.666,289.027,223.965Z" transform="translate(-281.268 -197.082)" fill="#fff"/>
      <path id="Path_2230" data-name="Path 2230" d="M240.6,331.08a2.874,2.874,0,0,1-1.914,1.287,70.635,70.635,0,0,0-10.126,4.547c-.518.28-.837.106-.839-.5-.014-2.964,0-5.928-.014-8.891,0-.521.316-.634.707-.732,2.173-.546,4.362-1.019,6.562-1.449a71.338,71.338,0,0,1,10.376-1.391,4.954,4.954,0,0,1,.536-.012.34.34,0,0,1,.368.389c-.012.228-.159.3-.356.318q-.534.047-1.069.09a86.271,86.271,0,0,0-11.031,1.653c-1.543.328-3.077.7-4.626,1a.664.664,0,0,0-.622.78c.02,2.35.029,4.7,0,7.052-.009.648.212.677.689.424a65.124,65.124,0,0,1,6.433-2.972c1.344-.535,2.7-1.053,4.058-1.539C239.976,331.044,240.288,330.861,240.6,331.08Z" transform="translate(-227.71 -317.299)" fill="#fff"/>
      <path id="Path_2231" data-name="Path 2231" d="M658.588,349.663a26.243,26.243,0,0,0-5.876-4.235c-.519-.268-1.055-.5-1.588-.743-.233-.1-.425-.242-.332-.514.11-.322.369-.275.632-.185a17.079,17.079,0,0,1,3.85,1.992,27.58,27.58,0,0,1,5.309,4.549c.1.113.2.231.3.347.158.186.279.4.1.618s-.412.144-.631.05c-.934-.4-1.86-.816-2.8-1.195a19.4,19.4,0,0,0-9.21-1.764c-.1.01-.205,0-.306.012-.317.036-.593-.041-.6-.4,0-.342.248-.439.577-.448a19.566,19.566,0,0,1,4.949.327,39.608,39.608,0,0,1,5.161,1.61A.445.445,0,0,0,658.588,349.663Z" transform="translate(-625.487 -336.24)" fill="#fff"/>
      <path id="Path_2232" data-name="Path 2232" d="M302.965,708.825a3.8,3.8,0,0,0,2.177.826,5.433,5.433,0,0,0,1.978-.13c.285-.085.679-.178.763.237s-.349.424-.618.514a5.953,5.953,0,0,1-4.847-.723,1.6,1.6,0,0,0-1.494-.109c-.165.065-.336.117-.506.17-.272.086-.728-.048-.744.352-.012.292.393.426.652.567a5.818,5.818,0,0,0,3.093.7c.322-.015.714-.031.743.337.031.4-.384.379-.689.407a6.48,6.48,0,0,1-4.679-1.5,2.883,2.883,0,0,0-2.3-.128c-.338.275,0,.441.174.585a5.948,5.948,0,0,0,3.206,1.29c.292.033.771-.133.721.411-.045.5-.488.349-.793.334a5.6,5.6,0,0,1-3.841-1.622,2.382,2.382,0,0,0-2.232-.809c-.292.046-.6-.072-.946.127a5.386,5.386,0,0,0,3.516,2.192c.3.063.676.035.566.5-.087.368-.394.309-.686.257a6.113,6.113,0,0,1-2.786-1.165c-.059-.047-.169-.07-.185-.125-.205-.7-.819-.99-1.321-1.425a2.667,2.667,0,0,0-1.867-.634c-.366,0-.569.145-.3.572a5.155,5.155,0,0,0,2.719,2.543,1.555,1.555,0,0,1,.4.21c.161.111.386.212.253.476-.111.22-.32.23-.531.2a3.6,3.6,0,0,1-1.37-.645,5.283,5.283,0,0,1-2.178-2.473,1.875,1.875,0,0,0-1.674-1.286,1.848,1.848,0,0,1-.45-.093c-.6-.217-.688.022-.5.539a5.8,5.8,0,0,0,2.381,2.994c.306.194.5.36.295.712-.241.42-.477.087-.691-.035a6.473,6.473,0,0,1-2.953-4.086,3.27,3.27,0,0,0-1.887-1.1c-.294.111-.2.38-.18.595a5.764,5.764,0,0,0,1.577,3.48c.206.212.623.435.215.795-.378.333-.584-.042-.807-.271a5.362,5.362,0,0,1-1.7-3.72,1.637,1.637,0,0,0-1.286-1.839,1.035,1.035,0,0,1-.282-.115c-.241-.152-.387-.371-.234-.643.144-.256.412-.189.613-.088.681.344,1.39.619,2.1.906a26.217,26.217,0,0,0,13.739,1.555,25.34,25.34,0,0,0,7.7-2.386c.258-.127.54-.3.726.043.2.364-.064.554-.372.688C304.579,708.111,303.82,708.447,302.965,708.825Z" transform="translate(-278.003 -680.219)" fill="#fff"/>
    </g>
    <g id="Group_3694" data-name="Group 3694" transform="translate(4241.51 6620.51)">
      <circle id="Ellipse_834" data-name="Ellipse 834" cx="22.49" cy="22.49" r="22.49" transform="translate(0 0)" fill="none" stroke="#fff" stroke-width="0.3"/>
    </g>
  </g>
</svg>
