<svg xmlns="http://www.w3.org/2000/svg" width="50" height="50" viewBox="0 0 50 50">
  <g id="Group_4975" data-name="Group 4975" transform="translate(-4299 -6618)">
    <g id="Group_4937" data-name="Group 4937" transform="translate(4299 6618)">
      <circle id="Ellipse_997" data-name="Ellipse 997" cx="25" cy="25" r="25" fill="#33b5e5"/>
    </g>
    <g id="Group_4966" data-name="Group 4966">
      <path id="Path_2235" data-name="Path 2235" d="M229.993,301.283a17.329,17.329,0,0,1,4.824.586c.474.111,1.155.174.93.916-.189.622-.729.4-1.2.288a17.563,17.563,0,0,0-10.346.408,10.8,10.8,0,0,0-6.458,6.183c-.3.707-.163.954.576,1.116,1.42.31,2.82.71,4.226,1.079.456.12,1.034.211.866.866-.143.558-.667.5-1.082.34-.747-.287-1.018-.033-.975.722a5.866,5.866,0,0,0,.036,1.411c.543,1.675-.165,2.9-1.3,4.006-.27.264-.718.553-.1.884a3.349,3.349,0,0,1,1.4,2.221c.277.819.67,1.6.882,2.437.32,1.257,1.154,1.547,2.3,1.48a7.893,7.893,0,0,0,4.3-1.431c.388-.281.813-.687,1.2-.134.361.515-.066.981-.491,1.135-1.581.575-1.622,1.619-1.161,3a4.543,4.543,0,0,1,.092,2.226c-.07.388-.221.735-.638.713-.468-.024-.667-.37-.59-.837a7.961,7.961,0,0,0-.3-3.033c-.111-.5-.328-.732-.908-.562a6.939,6.939,0,0,1-1.522.178c-1.845.11-2.692-.422-3.356-2.1a21.328,21.328,0,0,1-.773-2.1,4.261,4.261,0,0,0-1.974-2.782c-.736-.421-.706-.948-.038-1.483a5.691,5.691,0,0,0,1.784-2.015c.317-.7.232-1.223-.634-1.39a3.7,3.7,0,0,1-1.834-1.016.632.632,0,0,1-.057-.945c.257-.3.56-.207.839.008.094.072.183.151.283.213.357.223.733.686,1.14.412s.179-.868.231-1.319c.07-.613-.469-.539-.8-.638a22.707,22.707,0,0,0-2.285-.577c-.942-.176-1.123-.673-.842-1.527A12.028,12.028,0,0,1,224,302.236,16.057,16.057,0,0,1,229.993,301.283Z" transform="translate(4090.948 6329.246)" fill="#fff"/>
      <path id="Path_2236" data-name="Path 2236" d="M503.786,173.3c-2.056,1.065-3.8,1.969-5.542,2.868-.449.232-.985.612-1.308-.061-.282-.588.291-.8.709-1.017,1.988-1.036,3.967-2.094,5.973-3.094a1.252,1.252,0,0,0,.8-1.372c-.093-1.572-.007-3.15-.185-4.723a2.684,2.684,0,0,1,2.49-3.216,2.646,2.646,0,0,1,2.725,2.655,2.549,2.549,0,0,1-3.1,2.538c-.711-.078-.754.173-.762.743-.044,2.917.083,3.038,3.093,2.621a4.177,4.177,0,0,1-.115-2.072,2.672,2.672,0,0,1,3.061-1.821,2.635,2.635,0,0,1-.457,5.211q-2.363.074-4.73,0a1.207,1.207,0,0,0-1.391.9c-.709,1.876-1.506,3.718-2.3,5.558-.213.491-.286,1.4-1.086,1.084-.907-.362-.23-1.086-.029-1.6C502.269,176.856,502.973,175.24,503.786,173.3Zm8.709-3.328a1.321,1.321,0,0,0-1.283-1.406,1.367,1.367,0,1,0-.1,2.727A1.313,1.313,0,0,0,512.494,169.968Zm-5.538-3.282a1.374,1.374,0,1,0-1.51-1.285C505.495,166.2,506,166.67,506.956,166.686Z" transform="translate(3824.883 6460.586)" fill="#fff"/>
      <path id="Path_2237" data-name="Path 2237" d="M428.2,432.705a13.291,13.291,0,0,1,.75-4.053c.2-.539.359-1.021-.218-1.448a1.383,1.383,0,0,1-.378-.59c-.2-.491-.626-1.1.072-1.441s.775.383,1,.815a1.72,1.72,0,0,0,2.946.15,5,5,0,0,0,1.182-3.383,1.883,1.883,0,0,0-1.26-1.814,1.567,1.567,0,0,0-2.022.465c-.679.95-1.414.769-2.265.4a5.818,5.818,0,0,1-1.984-1.457,11,11,0,0,1-2.385-4.946c-.1-.4-.224-.934.377-1.076.572-.135.717.3.822.76a12.011,12.011,0,0,0,.888,2.561,6.918,6.918,0,0,0,1.654,2.28c.777.674,1.427,1.084,2.517.213a3.058,3.058,0,0,1,4.872,2.329,4.988,4.988,0,0,1-3.855,5.609.8.8,0,0,0-.656.57,11,11,0,0,0-.556,6.266c.582,2.484,2.234,3.5,4.746,3,.579-.113,1.445-.6,1.629.221.207.923-.85.858-1.437.974-3.361.663-5.719-1.009-6.263-4.408C428.271,434.046,428.258,433.372,428.2,432.705Z" transform="translate(3894.356 6222.125)" fill="#fff"/>
      <path id="Path_2238" data-name="Path 2238" d="M646.533,390.517a7.518,7.518,0,0,1-1.727,4.84c-.788,1.078-1.7,2.063-2.512,3.128-1.005,1.325-.579,2.377,1.072,2.7.413.081.847.128.787.653-.062.546-.534.623-.99.608a2.773,2.773,0,0,1-2.3-4.042,11.826,11.826,0,0,1,1.976-2.491c2.842-2.965,3.106-6.189,1.1-9.687-.489-.851-.973-1.706-1.482-2.544-.229-.377-.36-.744.063-1.025a.631.631,0,0,1,.916.257C645.073,385.352,646.378,387.922,646.533,390.517Z" transform="translate(3688.715 6252.218)" fill="#fff"/>
    </g>
    <g id="Group_3694" data-name="Group 3694" transform="translate(4301.51 6620.51)">
      <circle id="Ellipse_834" data-name="Ellipse 834" cx="22.49" cy="22.49" r="22.49" transform="translate(0 0)" fill="none" stroke="#fff" stroke-width="0.3"/>
    </g>
  </g>
</svg>
