<svg xmlns="http://www.w3.org/2000/svg" width="50" height="50" viewBox="0 0 50 50">
  <g id="Group_4976" data-name="Group 4976" transform="translate(-4359 -6618)">
    <circle id="Ellipse_998" data-name="Ellipse 998" cx="25" cy="25" r="25" transform="translate(4359 6618)" fill="#33b5e5"/>
    <g id="Group_4968" data-name="Group 4968">
      <path id="Path_2240" data-name="Path 2240" d="M628.108,623.849l-2.665-3.089-.771.651,2.534,2.933-.007.007-.016.013a1.522,1.522,0,0,1-.653.338l-2.429-2.809-.231.2,2.665,3.089c.2.238.712.136,1.142-.227l.016-.013C628.123,624.573,628.309,624.087,628.108,623.849Z" transform="translate(3764.517 6026.464)" fill="#fff"/>
      <path id="Path_2241" data-name="Path 2241" d="M473.225,448.5l.783-.661.783-.661-.046-.122-1.706-4.546a2.951,2.951,0,0,0-4.12,3.475l4.193,2.447Z" transform="translate(3911.5 6195.698)" fill="#fff"/>
      <g id="Group_4945" data-name="Group 4945" transform="translate(4368.97 6623.052)">
        <path id="Path_2242" data-name="Path 2242" d="M302.435,464.174a36.038,36.038,0,0,1-1.006-13.107,22.527,22.527,0,0,0,2.758,10.756c.044-.031.15-.1.2-.128a33.751,33.751,0,0,1-2.727-12.9A27.32,27.32,0,0,0,302.435,464.174Z" transform="translate(-298.382 -433.622)" fill="#fff"/>
        <path id="Path_2243" data-name="Path 2243" d="M544.82,165.09a8.092,8.092,0,0,1,2.239.9,9.021,9.021,0,0,0-1.785-.872C545.122,165.108,544.972,165.1,544.82,165.09Z" transform="translate(-529.538 -164.75)" fill="#fff"/>
        <path id="Path_2244" data-name="Path 2244" d="M670.31,244.331l.469.543c2.424-5.094,8.272-12.484.214-21.144,3.893,5.09.62,14.447-.672,20.541l.025.029Z" transform="translate(-648.465 -220.323)" fill="#fff"/>
        <path id="Path_2245" data-name="Path 2245" d="M365.217,335.547a3.015,3.015,0,0,1-1.982-.588,1.634,1.634,0,0,1-.225.2,3.491,3.491,0,0,1-1.05.313,2.349,2.349,0,0,0,1.476,0,2.917,2.917,0,0,1-.908.449,2.4,2.4,0,0,0,1.4-.234,2.314,2.314,0,0,1-.735.5,1.619,1.619,0,0,0,1.162-.383,1.381,1.381,0,0,1-.594.634,1.386,1.386,0,0,0,1.059-.537,1.167,1.167,0,0,1-.27.537.983.983,0,0,0,.55-.527c.092.062.019.309-.095.489a.842.842,0,0,0,.36-.677,1.644,1.644,0,0,0,.037-.982A1.307,1.307,0,0,1,365.217,335.547Z" transform="translate(-356.242 -325.527)" fill="#fff"/>
        <path id="Path_2246" data-name="Path 2246" d="M467.126,355.232a.9.9,0,0,1-.747.529,1.028,1.028,0,0,0,1.074-.3.917.917,0,0,1-.573.779,1.058,1.058,0,0,0,1.026-.639,1.146,1.146,0,0,1-.412.929,1.348,1.348,0,0,0,.854-.65.857.857,0,0,0,.467,1.016.9.9,0,0,1-.015-1.016,1.035,1.035,0,0,0,.689,1.012.912.912,0,0,1-.173-.915.814.814,0,0,0,.876.682.781.781,0,0,1-.36-.773c.061.361.425.486.8.427a.616.616,0,0,1-.484-.761.79.79,0,0,0,.016-.453.617.617,0,0,1-.194.467,4.493,4.493,0,0,1-2.576-.666,1.038,1.038,0,0,1,.525-.875,1.082,1.082,0,0,0-.706.69,1.129,1.129,0,0,1-1.077.567A1.049,1.049,0,0,0,467.126,355.232Z" transform="translate(-454.973 -343.799)" fill="#fff"/>
        <path id="Path_2247" data-name="Path 2247" d="M384.762,389.61s-.828.477-.8.968a.91.91,0,0,0,.419.6,1.669,1.669,0,0,1-.224-.639C384.121,390.1,384.762,389.61,384.762,389.61Z" transform="translate(-377.095 -377.527)" fill="#fff"/>
        <path id="Path_2248" data-name="Path 2248" d="M408.356,418.42c.1-.179-.422-.353-.556-.277,0,0,.277.045.322.138C408.106,418.448,408.308,418.506,408.356,418.42Z" transform="translate(-399.684 -404.55)" fill="#fff"/>
        <path id="Path_2249" data-name="Path 2249" d="M485.975,330.817c-.339-1.046-2.493-1.329-3.78-1.217-.141.012-.512.4-.408.493S485.14,329.8,485.975,330.817Z" transform="translate(-469.784 -320.634)" fill="#fff"/>
        <path id="Path_2250" data-name="Path 2250" d="M369.262,461.435a3.293,3.293,0,0,0-.819-.205,1.061,1.061,0,0,0,.625,1.392,3.71,3.71,0,0,0,2.84-.087c-.56-.4-1.684-.626-1.98-.941C369.69,461.658,369.35,461.657,369.262,461.435Z" transform="translate(-362.318 -445.402)" fill="#fff"/>
        <path id="Path_2251" data-name="Path 2251" d="M373.63,448.708a.789.789,0,0,1-.453-.2c-.52-.461-.848-1.181-1.421-1.431-.092-.04-.669.091-.762.065-.117-.033-.314-.319-.515-.357a.646.646,0,0,0-.77.582,4.15,4.15,0,0,0,.908.191c0,.149.413.241.645.175.038.174,1.263.482,1.912.914C373.471,448.838,373.559,448.73,373.63,448.708Z" transform="translate(-363.586 -431.694)" fill="#fff"/>
        <path id="Path_2252" data-name="Path 2252" d="M513.563,872.91l.556-.011a11.517,11.517,0,0,0-1.249-4.109A14.1,14.1,0,0,1,513.563,872.91Z" transform="translate(-499.259 -831.646)" fill="#fff"/>
        <path id="Path_2253" data-name="Path 2253" d="M279.173,250.044c.767-2.11.152-4.384-.816-6.9a7.9,7.9,0,0,0,1.719-.289s-5.256.209-6.29-1.077c-.386-.481.129-1.37-.038-2.964-.392-3.736.307-5.047.679-5.843-2.964,4.228-1.4,11.459.538,17.112a5.225,5.225,0,0,0-.574.2c-3.343-9.685-2.817-18.316,3.837-24.393-9.272,2.557-12.331,24.415-5.875,33.973.224.332.688,1.131,1.139,1.84l1.679.7a15.767,15.767,0,0,0-1.013-4.22c-.738-2.729-1.516-5-.743-6.665,1.042-2.246,4.116-.877,6.946-.828,1.207.021,2.359.064,3.312-1.013C282.589,250.476,281.216,250.4,279.173,250.044Zm-5.294.527a22.521,22.521,0,0,1-2.758-10.756,36.039,36.039,0,0,0,1.006,13.107,27.311,27.311,0,0,1-.779-15.374,33.751,33.751,0,0,0,2.727,12.9C274.028,250.472,273.922,250.541,273.879,250.571Z" transform="translate(-268.073 -222.37)" fill="#fff"/>
        <path id="Path_2254" data-name="Path 2254" d="M665.32,715.95c.19.488.382,1.006.578,1.583a28.539,28.539,0,0,1,1.745,9.4,4.045,4.045,0,0,0,.295-2.132,27.515,27.515,0,0,0-1.18-6.06,11.767,11.767,0,0,1,.1-2.64,1.779,1.779,0,0,1-.713.167A1.169,1.169,0,0,1,665.32,715.95Z" transform="translate(-643.736 -686.799)" fill="#fff"/>
        <path id="Path_2255" data-name="Path 2255" d="M633.932,226.2a4.246,4.246,0,0,1-2.095.139c3.737,5.38,2.407,12.982-.247,17.86l1.7,2.014C634.408,239.778,637.555,230.667,633.932,226.2Z" transform="translate(-611.77 -222.664)" fill="#fff"/>
        <path id="Path_2256" data-name="Path 2256" d="M701.38,592.28a12.553,12.553,0,0,0-2.21,3.075l.485.562A15.7,15.7,0,0,1,701.38,592.28Z" transform="translate(-675.815 -569.598)" fill="#fff"/>
        <path id="Path_2257" data-name="Path 2257" d="M528.078,231.636c1.2-3.612,1.537-9.565-2.5-16.137a1.026,1.026,0,0,0-.659.117c2.161,3.062,3.267,7.571,3.427,11.447-.371-4.248-2.013-9.282-3.7-11.266a.583.583,0,0,0-.305.34c.292,4.346,4.674,6.519,3.32,14.617l.376,1C528.049,231.715,528.066,231.678,528.078,231.636Z" transform="translate(-510.129 -212.51)" fill="#fff"/>
        <path id="Path_2258" data-name="Path 2258" d="M280.268,175.125a12.368,12.368,0,0,0-2.245-11.893l-1.95-2.114c-.256-.429-5.679-4.508-15.353-1.316-2.049.864-3.923,3.228-5.128,6.136A9.448,9.448,0,0,1,266,160.969a7.611,7.611,0,0,0-3.834.15h0c-6.656,1.781-10.921,11.912-9.133,15.61-.408-2.788,1.182-6.752,3.3-10.124a24.622,24.622,0,0,0-2.677,6.538,17.616,17.616,0,0,0-.4,3.646,39.836,39.836,0,0,0,1.073,16.9c.6,1.808,1.4,2.833,2.5,3.187-7.711-13.04-2.041-34.686,7.076-35.4-2.942,2.692-4.276,4.1-4.112,6.22a3.494,3.494,0,0,1,.405-1.669c.88.485,1.637,1.069,1.709,1.058.137-.021.036-.549-.076-.634a7.329,7.329,0,0,0-1.406-.831,34.107,34.107,0,0,1,3.6-4.151,6.471,6.471,0,0,1,2.559.38c.623-.811,2.112-.874,4.244-.359-1.034-1.588-4.468-2.607-7.628-2.276a20.422,20.422,0,0,1,2.162-.261c3.483.143,5.517,1.326,6.2,2.729a7.263,7.263,0,0,0,2.545.143,2.672,2.672,0,0,0-1.054-1.944c.206.066.41.135.613.207a6.565,6.565,0,0,1,1.084,1.5,1.846,1.846,0,0,0,.887-.679l.253.122a2.672,2.672,0,0,1-.439.82s6.148,5.36,3.822,13.121c-1.2,4.014-2.922,6.354-4.03,8.522l.468.542C277.123,181.54,278.9,179.577,280.268,175.125Zm-12.36-16.194c.152.008.3.018.453.029a9.006,9.006,0,0,1,1.785.872A8.076,8.076,0,0,0,267.908,158.931Z" transform="translate(-252.626 -158.591)" fill="#fff"/>
        <path id="Path_2259" data-name="Path 2259" d="M558.113,216.116l-1.507-.257a13.631,13.631,0,0,1,2.11,7.555,18.105,18.105,0,0,0-2.508-7.676,5.161,5.161,0,0,0-2.1-.3,19.194,19.194,0,0,1,3.15,13.861c.724-3.5,1.133-6.25-1.15-11.192,2.94,5.814,2.293,10,.549,14.093l1.4,1.656C559.613,229.413,561.857,221.565,558.113,216.116Z" transform="translate(-538.342 -212.451)" fill="#fff"/>
      </g>
      <rect id="Rectangle_3264" data-name="Rectangle 3264" width="2.162" height="5.028" transform="matrix(0.764, -0.645, 0.645, 0.764, 4384.895, 6644.489)" fill="#fff"/>
    </g>
    <g id="Group_3694" data-name="Group 3694" transform="translate(4361.51 6620.51)">
      <circle id="Ellipse_834" data-name="Ellipse 834" cx="22.49" cy="22.49" r="22.49" transform="translate(0 0)" fill="none" stroke="#fff" stroke-width="0.3"/>
    </g>
  </g>
</svg>
