<svg xmlns="http://www.w3.org/2000/svg" width="50" height="50" viewBox="0 0 50 50">
  <g id="Massage" transform="translate(-62 -62)">
    <g id="Group_4950" data-name="Group 4950" transform="translate(62 62)">
      <g id="Group_4947" data-name="Group 4947" transform="translate(0 0)">
        <circle id="Ellipse_999" data-name="Ellipse 999" cx="25" cy="25" r="25" fill="#fff"/>
      </g>
      <g id="Group_4949" data-name="Group 4949" transform="translate(2.002 2.393)">
        <g id="Group_4948" data-name="Group 4948">
          <path id="Path_2260" data-name="Path 2260" d="M122.891,107.8a22.572,22.572,0,1,1-22.572,22.572A22.572,22.572,0,0,1,122.891,107.8m0-.039a22.543,22.543,0,1,0,8.8,1.777,22.465,22.465,0,0,0-8.8-1.777Z" transform="translate(-100.28 -107.76)" fill="#a3d9ea"/>
        </g>
      </g>
    </g>
    <g id="Group_4951" data-name="Group 4951" transform="translate(73.944 67.287)">
      <path id="Path_2261" data-name="Path 2261" d="M369.093,170.537a3.723,3.723,0,1,1,3.723-3.723A3.727,3.727,0,0,1,369.093,170.537Zm0-6.372a2.649,2.649,0,1,0,2.649,2.649A2.651,2.651,0,0,0,369.093,164.165Z" transform="translate(-361.447 -163.09)" fill="#009fe3"/>
      <path id="Path_2262" data-name="Path 2262" d="M329.164,563.312A2.167,2.167,0,0,1,327,561.148V548.386a.537.537,0,0,1,1.033-.207l3.254,7.781a.533.533,0,0,1,.041.208v4.981A2.166,2.166,0,0,1,329.164,563.312Zm-1.089-12.248v10.084a1.089,1.089,0,0,0,2.179,0v-4.873Z" transform="translate(-325.084 -527.726)" fill="#009fe3"/>
      <path id="Path_2263" data-name="Path 2263" d="M384.6,417.044a.537.537,0,0,1-.453-.248l-2.41-3.778a.537.537,0,1,1,.906-.577l2.41,3.778a.537.537,0,0,1-.452.826Z" transform="translate(-376.882 -399.163)" fill="#009fe3"/>
      <path id="Path_2264" data-name="Path 2264" d="M316.39,824.044H290.907a.537.537,0,1,1,0-1.074h25.484a.537.537,0,1,1,0,1.074Z" transform="translate(-290.37 -788.457)" fill="#009fe3"/>
      <path id="Path_2265" data-name="Path 2265" d="M483.169,511.794h-2.921a2.647,2.647,0,1,1,0-5.294h2.921a.537.537,0,0,1,.4.894,2.635,2.635,0,0,0,0,3.507.537.537,0,0,1-.4.894Zm-2.921-4.22a1.572,1.572,0,1,0,0,3.145h1.93a3.7,3.7,0,0,1,0-3.145Z" transform="translate(-467.808 -488.539)" fill="#009fe3"/>
      <path id="Path_2266" data-name="Path 2266" d="M668.373,511.794h-2.92a.537.537,0,0,1-.4-.894,2.635,2.635,0,0,0,0-3.507.537.537,0,0,1,.4-.894h2.92a2.647,2.647,0,0,1,0,5.294Zm-1.93-1.075h1.93a1.572,1.572,0,0,0,0-3.145h-1.93a3.7,3.7,0,0,1,0,3.145Z" transform="translate(-645.326 -488.539)" fill="#009fe3"/>
      <path id="Path_2267" data-name="Path 2267" d="M321.748,338.974h-.059a2.122,2.122,0,0,1-1.872-1.331l-6.111-14.617a.565.565,0,0,1-.029-.093,2.8,2.8,0,0,1-.092-1.839l2.311-7.906a2.856,2.856,0,0,1,3.783-1.858,2.938,2.938,0,0,1,1.665,3.575,1.431,1.431,0,0,0,.167,1.171l1.685,2.64h4.177a1.8,1.8,0,0,1,1.478,2.835.537.537,0,0,1-.171.157,2.653,2.653,0,0,0-.514.388.527.527,0,0,1-.2.121,1.8,1.8,0,0,1-.549.108l-6.634.181a.53.53,0,0,1-.468-.248l-.771-1.21-.482,1.648a3.462,3.462,0,0,0,.076,1.865l2.233,5.717a.538.538,0,0,1-1,.391l-2.233-5.717a4.532,4.532,0,0,1-.109-2.55l.816-2.793a.537.537,0,0,1,.969-.138l1.245,1.951,6.329-.173a.619.619,0,0,0,.124-.017,3.732,3.732,0,0,1,.5-.381.719.719,0,0,0,.082-.331.731.731,0,0,0-.73-.73H322.9a.538.538,0,0,1-.453-.248l-1.843-2.889a2.509,2.509,0,0,1-.292-2.05,1.859,1.859,0,0,0-1.024-2.272,1.782,1.782,0,0,0-2.362,1.158l-2.311,7.906a1.761,1.761,0,0,0,.087,1.208.542.542,0,0,1,.032.1l6.074,14.526a1.046,1.046,0,0,0,.91.672.964.964,0,0,0,.839-.419.975.975,0,0,0,.113-.93l-1.106-2.831a.538.538,0,0,1,1-.391l1.106,2.831a2.066,2.066,0,0,1-1.925,2.817Z" transform="translate(-312.264 -303.387)" fill="#009fe3"/>
      <path id="Path_2268" data-name="Path 2268" d="M564.546,492.3h-4.766a.537.537,0,0,1-.4-.181,3.723,3.723,0,1,1,5.57,0A.537.537,0,0,1,564.546,492.3Zm-4.51-1.075h4.255a2.649,2.649,0,1,0-4.255,0Z" transform="translate(-544.42 -469.045)" fill="#009fe3"/>
      <path id="Path_2269" data-name="Path 2269" d="M478.191,590.277h-.863a.537.537,0,1,1,0-1.074h.326v-.947H462.175v.947h11.778a.537.537,0,0,1,0,1.074H461.637a.537.537,0,0,1-.537-.537v-2.022a.537.537,0,0,1,.537-.538h16.554a.537.537,0,0,1,.537.538v2.022A.537.537,0,0,1,478.191,590.277Z" transform="translate(-452.171 -565)" fill="#009fe3"/>
      <path id="Path_2270" data-name="Path 2270" d="M562.162,634.351h-6.745a.537.537,0,0,1-.537-.537v-2.893a.537.537,0,0,1,.537-.537h.945V626.4a.537.537,0,0,1,.538-.537h3.78a.537.537,0,0,1,.538.537v3.986h.945a.537.537,0,0,1,.537.537v2.893A.538.538,0,0,1,562.162,634.351Zm-6.208-1.075h5.67v-1.819h-.945a.537.537,0,0,1-.537-.538v-3.986h-2.706v3.986a.537.537,0,0,1-.537.538h-.945v1.819Z" transform="translate(-541.046 -601.657)" fill="#009fe3"/>
      <path id="Path_2271" data-name="Path 2271" d="M539.374,771.627h-9.407a.537.537,0,0,1-.537-.537V768.2a.537.537,0,0,1,.537-.537h9.406a.537.537,0,0,1,.537.537v2.893A.536.536,0,0,1,539.374,771.627Zm-8.869-1.074h8.332v-1.818H530.5Z" transform="translate(-516.927 -736.04)" fill="#009fe3"/>
      <path id="Path_2272" data-name="Path 2272" d="M585.638,713.415h-1.89a.537.537,0,1,1,0-1.075h1.89a.537.537,0,0,1,0,1.075Z" transform="translate(-567.894 -683.614)" fill="#009fe3"/>
    </g>
  </g>
</svg>
