<svg xmlns="http://www.w3.org/2000/svg" width="50" height="50" viewBox="0 0 50 50">
  <g id="Group_4977" data-name="Group 4977" transform="translate(-4419 -6618)">
    <g id="Group_4952" data-name="Group 4952" transform="translate(4419 6618)">
      <circle id="Ellipse_1000" data-name="Ellipse 1000" cx="25" cy="25" r="25" fill="#33b5e5"/>
    </g>
    <g id="Group_4967" data-name="Group 4967">
      <g id="Group_4957" data-name="Group 4957" transform="translate(4438.199 6631.669)">
        <g id="Group_4956" data-name="Group 4956">
          <path id="Path_2274" data-name="Path 2274" d="M502.914,341.094a.469.469,0,0,1-.332-.8l16.8-16.8a.469.469,0,0,1,.664.664l-16.8,16.8A.469.469,0,0,1,502.914,341.094Z" transform="translate(-498.608 -323.355)" fill="#fff"/>
          <path id="Path_2275" data-name="Path 2275" d="M567.038,595.156a7.446,7.446,0,0,1-3.787-1.033.469.469,0,1,1,.477-.809,6.534,6.534,0,0,0,7.938-1.014l4.757-4.757a.469.469,0,0,1,.664.664l-4.757,4.757A7.471,7.471,0,0,1,567.038,595.156Z" transform="translate(-556.015 -573.595)" fill="#fff"/>
          <path id="Path_2276" data-name="Path 2276" d="M432.482,516.882a4.088,4.088,0,0,1-2.91-1.205l-.35-.35a.47.47,0,0,1,0-.664l11.225-11.225a.47.47,0,0,1,.664,0l.35.35a4.115,4.115,0,0,1,0,5.819l-6.071,6.07A4.087,4.087,0,0,1,432.482,516.882ZM430.219,515l.018.018a3.176,3.176,0,0,0,4.491,0l6.07-6.07h0a3.176,3.176,0,0,0,0-4.492l-.018-.018Z" transform="translate(-429.085 -493.889)" fill="#fff"/>
        </g>
        <path id="Path_2277" data-name="Path 2277" d="M556.9,624.182a.469.469,0,0,1-.332-.8l2.179-2.179a.469.469,0,0,1,.664.664l-2.179,2.179A.467.467,0,0,1,556.9,624.182Z" transform="translate(-549.774 -605.494)" fill="#fff"/>
        <path id="Path_2278" data-name="Path 2278" d="M535.827,680.32a.469.469,0,0,1-.332-.8l.243-.243a.469.469,0,0,1,.664.664l-.243.243A.466.466,0,0,1,535.827,680.32Z" transform="translate(-529.799 -660.53)" fill="#fff"/>
      </g>
      <path id="Path_2279" data-name="Path 2279" d="M319.009,528.787a3.725,3.725,0,0,1-1.35-.259,4.194,4.194,0,0,1-1.344-.843l-5.992-5.992a.469.469,0,0,1,.664-.664l5.993,5.993a2.9,2.9,0,0,0,3.493.4.469.469,0,1,1,.475.809A3.784,3.784,0,0,1,319.009,528.787Z" transform="translate(4121.795 6121.109)" fill="#fff"/>
      <path id="Path_2280" data-name="Path 2280" d="M405.815,593.041h-.154a12.872,12.872,0,0,1-2.956-.37.469.469,0,0,1,.247-.906h0c.047.013,4.7,1.24,7.643-1.092a.47.47,0,0,1,.583.736A8.531,8.531,0,0,1,405.815,593.041Z" transform="translate(4034.442 6055.075)" fill="#fff"/>
      <path id="Path_2281" data-name="Path 2281" d="M239.892,387.677h-.03a.469.469,0,0,1-.342-.183l-1.031-1.342a.47.47,0,0,1,.745-.572l.706.918,4.654-4.654-5.79-4.449a.47.47,0,0,1,.572-.745l6.213,4.775a.469.469,0,0,1,.046.7l-5.411,5.412A.472.472,0,0,1,239.892,387.677Z" transform="translate(4189.833 6257.899)" fill="#fff"/>
    </g>
    <g id="Group_3694" data-name="Group 3694" transform="translate(4421.51 6620.51)">
      <circle id="Ellipse_834" data-name="Ellipse 834" cx="22.49" cy="22.49" r="22.49" transform="translate(0 0)" fill="none" stroke="#fff" stroke-width="0.3"/>
    </g>
  </g>
</svg>
