<svg xmlns="http://www.w3.org/2000/svg" width="50" height="50" viewBox="0 0 50 50">
  <g id="Permanent_makeup" data-name="Permanent makeup" transform="translate(-62 -62)">
    <g id="Group_4959" data-name="Group 4959" transform="translate(62 62)">
      <circle id="Ellipse_1001" data-name="Ellipse 1001" cx="25" cy="25" r="25" transform="translate(0 0)" fill="#fff"/>
    </g>
    <g id="Group_4963" data-name="Group 4963" transform="translate(64.389 64.393)">
      <g id="Group_4961" data-name="Group 4961" transform="translate(5.834 7.875)">
        <g id="Group_4960" data-name="Group 4960" transform="translate(18.378)">
          <path id="Path_2282" data-name="Path 2282" d="M571.038,270.029a.419.419,0,0,1-.316-.156.5.5,0,0,1,.04-.673c.06-.08.118-.162.177-.245a4.643,4.643,0,0,1,.475-.6c.135-.137.2-.249.2-.333s-.087-.2-.247-.336a.966.966,0,0,1-.415-.646,1.054,1.054,0,0,1,.4-.73q.69-.694,1.383-1.384l.61-.61c.747-.748.885-.748,1.639,0l.04.041a.729.729,0,0,0,.128.114.644.644,0,0,0,.1-.086.3.3,0,0,0,.079-.109,1.056,1.056,0,0,0-.129-.134c-.111-.105-.215-.213-.32-.32-.069-.071-.138-.143-.209-.212a.4.4,0,0,1-.065-.562,1.312,1.312,0,0,1,.926-.669,1.294,1.294,0,0,1,1.037.441.665.665,0,0,0,.125.1s.029-.02.078-.072c.76-.783,1.547-1.564,2.309-2.319l.279-.276c.032-.032.056-.058.071-.075a.378.378,0,0,0-.034-.031.906.906,0,0,1-.392-.644.667.667,0,0,1,.24-.515c.525-.493.986-.012,1.184.194.316.33.638.656.976,1l.157.16a5.329,5.329,0,0,0,.016-.559c0-.141,0-.278.006-.414a.982.982,0,0,1,.928-1.04.938.938,0,0,1,.676.255,1.1,1.1,0,0,1,.306.806v.361a15.514,15.514,0,0,1-.054,1.638,1.216,1.216,0,0,0,.487,1.3.544.544,0,0,1,.28.4.64.64,0,0,1-.278.493l-.044.042c-.026.025-.05.05-.073.075a.615.615,0,0,1-.437.249h0a.64.64,0,0,1-.443-.24c-.513-.548-1.057-1.086-1.584-1.607-.272-.27-.545-.54-.815-.812a1.061,1.061,0,0,0-.106-.1.362.362,0,0,0-.058.05.317.317,0,0,0-.039.046,1.105,1.105,0,0,0,.083.084c.09.087.176.176.263.265.134.139.26.269.4.388a.561.561,0,0,1,.229.4.593.593,0,0,1-.232.43c-.2.187-.4.388-.59.583-.176.178-.351.357-.533.529a2.852,2.852,0,0,0-.245.283c-.214.268-.452.576-.808.558-.3-.013-.523-.281-.742-.541A3.372,3.372,0,0,0,577.9,264a1.213,1.213,0,0,1-.084-.088c-.014-.016-.032-.036-.047-.051a.413.413,0,0,0-.038.034.3.3,0,0,0-.041.047c.017.019.046.047.066.066s.038.036.056.054q.4.4.795.793c.671.667,1.364,1.358,2.034,2.05.134.139.182.15.194.15s.054,0,.183-.138c.9-.929,1.828-1.852,2.729-2.745l.416-.412a.979.979,0,0,1,1.578,0c.211.2.43.414.638.642a.966.966,0,0,1-.62,1.665h-.017a.976.976,0,0,1-.682-.3c-.081-.078-.113-.086-.115-.086a1.189,1.189,0,0,0-.125.115c-.945.96-1.914,1.926-2.852,2.86l-.294.293a1.019,1.019,0,0,1-1.689,0q-1.216-1.214-2.429-2.429l-1.068-1.069-.057-.059a.725.725,0,0,0-.1-.093c0,.005-.032.021-.084.072-.088.088-.095.127-.095.127a.561.561,0,0,0,.133.139c.092.08.175.166.256.249s.134.139.206.2a.517.517,0,0,1,.2.361.478.478,0,0,1-.169.351q-.806.793-1.6,1.6-.512.512-1.024,1.022a.715.715,0,0,1-1.082.005l-.06-.055a2.114,2.114,0,0,1-.278-.288c-.054-.071-.09-.093-.1-.094s-.042,0-.157.093c-.244.206-.5.4-.754.58l-.279.206A.744.744,0,0,1,571.038,270.029Zm3.123-5.843c-.078,0-.279.2-.513.434l-.611.61q-.692.691-1.382,1.383c-.191.192-.279.323-.276.408s.092.192.263.336a.963.963,0,0,1,.4.645.918.918,0,0,1-.323.654,4.332,4.332,0,0,0-.43.545c-.061.086-.121.172-.184.255a.339.339,0,0,0-.073.121.168.168,0,0,0,.029.024l.113-.085.292-.215c.245-.179.5-.365.731-.562a.655.655,0,0,1,.483-.191.581.581,0,0,1,.4.262,1.773,1.773,0,0,0,.225.23l.063.058c.183.171.32.171.486.005q.512-.509,1.023-1.021.8-.8,1.606-1.6a.372.372,0,0,0,.032-.035.489.489,0,0,0-.051-.052c-.079-.071-.153-.147-.226-.223s-.149-.154-.23-.224a.647.647,0,0,1-.28-.45.625.625,0,0,1,.221-.444.569.569,0,0,1,.394-.2h.006a.561.561,0,0,1,.4.227l.049.051,1.068,1.069q1.214,1.215,2.429,2.429c.436.435.648.436,1.082,0l.294-.293c.937-.934,1.906-1.9,2.849-2.857a.517.517,0,0,1,.845-.037.561.561,0,0,0,.383.178h.008a.514.514,0,0,0,.36-.176.534.534,0,0,0-.05-.77c-.2-.218-.411-.423-.617-.621-.391-.376-.6-.377-.977,0l-.416.412c-.9.891-1.829,1.812-2.722,2.738a.723.723,0,0,1-.492.269h0a.731.731,0,0,1-.5-.281c-.667-.689-1.359-1.378-2.028-2.043l-.8-.793-.047-.044a.524.524,0,0,1-.211-.37.5.5,0,0,1,.176-.361.514.514,0,0,1,.36-.171.5.5,0,0,1,.35.209c.018.02.036.041.055.059a3.646,3.646,0,0,1,.288.316c.137.162.324.384.432.389.137,0,.3-.208.453-.4a3.086,3.086,0,0,1,.286-.328c.178-.169.35-.344.523-.519.195-.2.4-.4.6-.6a.4.4,0,0,0,.095-.11.767.767,0,0,0-.079-.08c-.153-.131-.292-.276-.427-.415-.083-.085-.165-.171-.25-.253a.556.556,0,0,1-.223-.384.5.5,0,0,1,.167-.355.515.515,0,0,1,.366-.187h0a.586.586,0,0,1,.407.23c.271.274.543.543.815.812.529.524,1.076,1.065,1.595,1.619.09.1.131.1.132.1a.777.777,0,0,0,.124-.116c.028-.03.057-.061.088-.089l.048-.046a1.023,1.023,0,0,0,.138-.146.37.37,0,0,0-.088-.076,1.655,1.655,0,0,1-.673-1.7,15.124,15.124,0,0,0,.052-1.592V259.4a.681.681,0,0,0-.177-.5.489.489,0,0,0-.364-.133c-.431.012-.5.447-.511.634-.007.128-.006.256,0,.388a3.909,3.909,0,0,1-.1,1.064l-.1.367-.714-.727c-.34-.345-.663-.673-.98-1s-.43-.317-.579-.177a.266.266,0,0,0-.1.187.541.541,0,0,0,.235.326.476.476,0,0,1,.2.344.548.548,0,0,1-.211.4l-.279.277c-.76.753-1.546,1.532-2.3,2.312a.5.5,0,0,1-.811-.024.893.893,0,0,0-.691-.323.915.915,0,0,0-.614.477l0,.007.013.013c.072.072.144.145.214.218.1.1.2.206.3.3a.651.651,0,0,1,.265.44.736.736,0,0,1-.611.632h0a.611.611,0,0,1-.429-.243l-.038-.038c-.226-.222-.439-.436-.519-.436Zm2.365,2.244Zm3.8-5.12Z" transform="translate(-570.603 -258.338)" fill="#009fe3"/>
          <path id="Path_2283" data-name="Path 2283" d="M739.706,350.036c.086-.077.149-.128.206-.185.6-.6,1.2-1.212,1.816-1.808.176-.172.209-.292.01-.473-.4-.364-.746-.992-1.179-1.054-.413-.059-.747.639-1.13.99-.314.289-.6.61-.912.9-.182.168-.213.286-.012.47.34.309.654.647.98.97C739.553,349.913,739.629,349.97,739.706,350.036Z" transform="translate(-729.593 -341.902)" fill="#009fe3"/>
        </g>
        <path id="Path_2284" data-name="Path 2284" d="M219.257,476.619a13.591,13.591,0,0,0-.017-1.893,2.778,2.778,0,0,1,1.064-2.5,13.554,13.554,0,0,1,4.789-2.923,26.18,26.18,0,0,1,9.263-1.59,16.024,16.024,0,0,1,11.268,4.862c1.411,1.332,2.8,2.684,4.189,4.041.226.222.669.448.339.856-.288.357-.637.032-.881-.11a61.369,61.369,0,0,0-6.424-3.317,20.272,20.272,0,0,0-8.175-1.913,16.187,16.187,0,0,0-7.865,2.377,24.133,24.133,0,0,0-6.718,5.389c-.141.166-.293.3-.514.226a.505.505,0,0,1-.32-.544Q219.26,478.1,219.257,476.619ZM246.8,475.04l.109-.141c-.769-.728-1.528-1.465-2.308-2.18a15.161,15.161,0,0,0-11.5-4.238A25.566,25.566,0,0,0,226,469.79a12.4,12.4,0,0,0-5.6,3.534.993.993,0,0,0-.3.664c0,1.339,0,2.679,0,4.018,0,.12-.042.275.093.338.164.077.274-.047.384-.157a25.955,25.955,0,0,1,6.344-4.657,17.688,17.688,0,0,1,5.429-1.971c4.04-.657,7.8.373,11.433,2.044C244.793,474.07,245.8,474.561,246.8,475.04Z" transform="translate(-219.213 -456.759)" fill="#009fe3"/>
      </g>
      <g id="Group_4962" data-name="Group 4962" transform="translate(0 0)">
        <path id="Path_2285" data-name="Path 2285" d="M130.281,107.8a22.572,22.572,0,1,1-22.572,22.572A22.572,22.572,0,0,1,130.281,107.8m0-.039a22.543,22.543,0,1,0,8.8,1.777,22.465,22.465,0,0,0-8.8-1.777Z" transform="translate(-107.67 -107.76)" fill="#a3d9ea"/>
      </g>
    </g>
  </g>
</svg>
