<svg xmlns="http://www.w3.org/2000/svg" width="50" height="50" viewBox="0 0 50 50">
  <g id="Group_4979" data-name="Group 4979" transform="translate(-4539 -6618)">
    <g id="Group_3693" data-name="Group 3693" transform="translate(4539 6618)">
      <circle id="Ellipse_834" data-name="Ellipse 834" cx="25" cy="25" r="25" fill="#33b5e5"/>
    </g>
    <g id="Group_3694" data-name="Group 3694" transform="translate(4541.51 6620.51)">
      <circle id="Ellipse_834-2" data-name="Ellipse 834" cx="22.49" cy="22.49" r="22.49" transform="translate(0 0)" fill="none" stroke="#fff" stroke-width="0.3"/>
    </g>
    <g id="Group_4964" data-name="Group 4964">
      <g id="Path_2201" data-name="Path 2201" transform="translate(4560.657 6642.972)">
        <path id="Path_2286" data-name="Path 2286" d="M9.278-15.872c.24-.146.475.613-.612,1.513a23.741,23.741,0,0,0-2.325,4.188A23.3,23.3,0,0,0,5.278-7.5C4.5-4.618,4.347-1.34,4.6-1A8.009,8.009,0,0,1,6,3,3,3,0,1,1,0,3,4.5,4.5,0,0,1,.072,1.75,5.026,5.026,0,0,1,1.422-1,26.183,26.183,0,0,1,2.759-6.7a40.1,40.1,0,0,1,2.828-5.728,19.94,19.94,0,0,1,2.341-2.753C8.966-16.359,9.278-15.872,9.278-15.872Z" fill="none"/>
        <path id="Path_2287" data-name="Path 2287" d="M5.526-10.564C4.771-9.1,3.807-6.953,3.606-6.4A25.531,25.531,0,0,0,2.318-.919l-.029.3-.2.222A4.135,4.135,0,0,0,.955,1.925l0,.015a2.956,2.956,0,0,0-.058.843C.9,2.857.9,2.927.9,3A2.1,2.1,0,1,0,5.1,3,7.2,7.2,0,0,0,3.9-.448L3.887-.46c-.15-.2-.43-.564-.231-2.914a25.786,25.786,0,0,1,.753-4.362A11.8,11.8,0,0,1,5.157-9.7c.128-.278.248-.54.34-.787l.029-.078m3.521-5.409a.271.271,0,0,1,.231.1c.24-.146.475.613-.612,1.513a23.74,23.74,0,0,0-2.325,4.188A23.3,23.3,0,0,0,5.278-7.5C4.5-4.618,4.347-1.34,4.6-1.005A8.009,8.009,0,0,1,6,3,3,3,0,1,1,0,3,4.5,4.5,0,0,1,.072,1.75a5.026,5.026,0,0,1,1.35-2.755A26.183,26.183,0,0,1,2.759-6.7a40.1,40.1,0,0,1,2.828-5.728,19.949,19.949,0,0,1,2.341-2.753C8.5-15.827,8.846-15.972,9.047-15.972Z" fill="#fff"/>
      </g>
      <path id="Path_2202" data-name="Path 2202" d="M-.157.289l3.4-.59s2.54-.4,2.371,0A9.136,9.136,0,0,0,4.49,5.148,6,6,0,0,0,6.328,8.232,5.248,5.248,0,0,0,9.624,9.6a6.543,6.543,0,0,0,3.422-.993,5.675,5.675,0,0,0,2.366-5.26,10.894,10.894,0,0,0-.57-2.366c-.086-.119-.485-.356,0-.7h2.2s4.111-.317,4.1,0a7.007,7.007,0,0,0-.951,3.443,10.388,10.388,0,0,0,1.267,3.95" transform="translate(4553.157 6648.472)" fill="none" stroke="#fff" stroke-linecap="round" stroke-width="0.9"/>
      <g id="Group_4914" data-name="Group 4914" transform="translate(6402.657 6.972)">
        <path id="Path_2203" data-name="Path 2203" d="M1.828.366.539,1.655" transform="translate(-1843.5 6642.5)" fill="none" stroke="#fff" stroke-linecap="round" stroke-width="0.9"/>
        <path id="Path_2204" data-name="Path 2204" d="M.539.366,1.828,1.655" transform="translate(-1842.239 6642.5)" fill="none" stroke="#fff" stroke-linecap="round" stroke-width="0.9"/>
        <line id="Line_782" data-name="Line 782" y1="4" transform="translate(-1841.7 6643.5)" fill="none" stroke="#fff" stroke-linecap="round" stroke-width="0.9"/>
      </g>
      <g id="Group_4915" data-name="Group 4915" transform="translate(6406.918 6.972)">
        <path id="Path_2203-2" data-name="Path 2203" d="M1.828.366.539,1.655" transform="translate(-1843.5 6642.5)" fill="none" stroke="#fff" stroke-linecap="round" stroke-width="0.9"/>
        <path id="Path_2204-2" data-name="Path 2204" d="M.539.366,1.828,1.655" transform="translate(-1842.239 6642.5)" fill="none" stroke="#fff" stroke-linecap="round" stroke-width="0.9"/>
        <line id="Line_782-2" data-name="Line 782" y1="4" transform="translate(-1841.7 6643.5)" fill="none" stroke="#fff" stroke-linecap="round" stroke-width="0.9"/>
      </g>
    </g>
  </g>
</svg>
