<svg xmlns="http://www.w3.org/2000/svg" width="35" height="35" viewBox="0 0 50 50">
  <g id="Group_4898" data-name="Group 4898" transform="translate(-16205 -19177)">
    <circle id="Ellipse_834" class="dynamic_fill_color" data-name="Ellipse 834" cx="25" cy="25" r="25" transform="translate(16205 19177)" fill="#33b5e5"/>
    <circle id="Ellipse_834-2"  data-name="Ellipse 834" cx="22.49" cy="22.49" r="22.49" transform="translate(16207.51 19179.512)" fill="none" stroke="#fff" stroke-width="1"/>
    <path id="Icon_awesome-image" data-name="Icon awesome-image" d="M16.589,18.229H1.716A1.716,1.716,0,0,1,0,16.513V6.216A1.716,1.716,0,0,1,1.716,4.5H16.589a1.716,1.716,0,0,1,1.716,1.716v10.3a1.716,1.716,0,0,1-1.716,1.716ZM4,6.5a2,2,0,1,0,2,2A2,2,0,0,0,4,6.5ZM2.288,15.941H16.017v-4L12.888,8.808a.429.429,0,0,0-.607,0L7.437,13.653,5.452,11.668a.429.429,0,0,0-.607,0L2.288,14.225Z" transform="translate(16220.848 19190.648)" fill="#fff"/>
  </g>
</svg>
