<svg xmlns="http://www.w3.org/2000/svg" xmlns:xlink="http://www.w3.org/1999/xlink" width="35" height="35" viewBox="0 0 50 50">
  <defs>
    <linearGradient id="linear-gradient" x1="0.5" x2="0.5" y2="1" gradientUnits="objectBoundingBox">
      <stop offset="0" stop-color="#ffe3f1"/>
      <stop offset="1" stop-color="#f276b5"/>
    </linearGradient>
  </defs>
  <g id="Group_4906" data-name="Group 4906" transform="translate(-16565 -19177)">
    <circle id="Ellipse_834" data-name="Ellipse 834" cx="25" cy="25" r="25" transform="translate(16565 19177)" fill="url(#linear-gradient)"/>
    <circle id="Ellipse_834-2" data-name="Ellipse 834" cx="22.49" cy="22.49" r="22.49" transform="translate(16567.512 19179.512)" fill="none" stroke="#fff" stroke-width="1"/>
    <path id="Icon_awesome-user-tie" data-name="Icon awesome-user-tie" d="M9.153,10.46a5.23,5.23,0,1,0-5.23-5.23,5.23,5.23,0,0,0,5.23,5.23Zm3.914,1.332-1.953,7.821L9.806,14.056l1.308-2.288H7.191L8.5,14.056,7.191,19.613,5.238,11.792A5.482,5.482,0,0,0,0,17.259v1.7a1.962,1.962,0,0,0,1.961,1.961H16.344a1.962,1.962,0,0,0,1.961-1.961v-1.7A5.482,5.482,0,0,0,13.067,11.792Z" transform="translate(16580.848 19191.539)" fill="#fff"/>
    <circle id="Ellipse_834-3" data-name="Ellipse 834" cx="25" cy="25" r="25" transform="translate(16565 19177)" fill="url(#linear-gradient)"/>
    <circle id="Ellipse_834-4" data-name="Ellipse 834" cx="22.49" cy="22.49" r="22.49" transform="translate(16567.512 19179.512)" fill="none" stroke="#fff" stroke-width="1"/>
    <path id="Icon_awesome-user-tie-2" data-name="Icon awesome-user-tie" d="M9.153,10.46a5.23,5.23,0,1,0-5.23-5.23,5.23,5.23,0,0,0,5.23,5.23Zm3.914,1.332-1.953,7.821L9.806,14.056l1.308-2.288H7.191L8.5,14.056,7.191,19.613,5.238,11.792A5.482,5.482,0,0,0,0,17.259v1.7a1.962,1.962,0,0,0,1.961,1.961H16.344a1.962,1.962,0,0,0,1.961-1.961v-1.7A5.482,5.482,0,0,0,13.067,11.792Z" transform="translate(16580.848 19191.539)" fill="#fff"/>
    <circle id="Ellipse_834-5" data-name="Ellipse 834" cx="25" cy="25" r="25" transform="translate(16565 19177)" fill="url(#linear-gradient)"/>
    <circle id="Ellipse_834-6" data-name="Ellipse 834" cx="22.49" cy="22.49" r="22.49" transform="translate(16567.512 19179.512)" fill="none" stroke="#fff" stroke-width="1"/>
    <path id="Icon_awesome-user-tie-3" data-name="Icon awesome-user-tie" d="M9.153,10.46a5.23,5.23,0,1,0-5.23-5.23,5.23,5.23,0,0,0,5.23,5.23Zm3.914,1.332-1.953,7.821L9.806,14.056l1.308-2.288H7.191L8.5,14.056,7.191,19.613,5.238,11.792A5.482,5.482,0,0,0,0,17.259v1.7a1.962,1.962,0,0,0,1.961,1.961H16.344a1.962,1.962,0,0,0,1.961-1.961v-1.7A5.482,5.482,0,0,0,13.067,11.792Z" transform="translate(16580.848 19191.539)" fill="#fff"/>
    <circle id="Ellipse_834-7" data-name="Ellipse 834" cx="25" cy="25" r="25" transform="translate(16565 19177)" fill="url(#linear-gradient)"/>
    <circle id="Ellipse_834-8" data-name="Ellipse 834" cx="22.49" cy="22.49" r="22.49" transform="translate(16567.512 19179.512)" fill="none" stroke="#fff" stroke-width="1"/>
    <path id="Icon_awesome-user-tie-4" data-name="Icon awesome-user-tie" d="M9.153,10.46a5.23,5.23,0,1,0-5.23-5.23,5.23,5.23,0,0,0,5.23,5.23Zm3.914,1.332-1.953,7.821L9.806,14.056l1.308-2.288H7.191L8.5,14.056,7.191,19.613,5.238,11.792A5.482,5.482,0,0,0,0,17.259v1.7a1.962,1.962,0,0,0,1.961,1.961H16.344a1.962,1.962,0,0,0,1.961-1.961v-1.7A5.482,5.482,0,0,0,13.067,11.792Z" transform="translate(16580.848 19191.539)" fill="#fff"/>
    <circle id="Ellipse_834-9" data-name="Ellipse 834" cx="25" cy="25" r="25" transform="translate(16565 19177)" fill="url(#linear-gradient)"/>
    <circle id="Ellipse_834-10" data-name="Ellipse 834" cx="22.49" cy="22.49" r="22.49" transform="translate(16567.512 19179.512)" fill="none" stroke="#fff" stroke-width="1"/>
    <path id="Icon_awesome-user-tie-5" data-name="Icon awesome-user-tie" d="M9.153,10.46a5.23,5.23,0,1,0-5.23-5.23,5.23,5.23,0,0,0,5.23,5.23Zm3.914,1.332-1.953,7.821L9.806,14.056l1.308-2.288H7.191L8.5,14.056,7.191,19.613,5.238,11.792A5.482,5.482,0,0,0,0,17.259v1.7a1.962,1.962,0,0,0,1.961,1.961H16.344a1.962,1.962,0,0,0,1.961-1.961v-1.7A5.482,5.482,0,0,0,13.067,11.792Z" transform="translate(16580.848 19191.539)" fill="#fff"/>
    <circle id="Ellipse_834-11" class="dynamic_fill_color"  data-name="Ellipse 834" cx="25" cy="25" r="25" transform="translate(16565 19177)" fill="#33b5e5"/>
    <circle id="Ellipse_834-12" data-name="Ellipse 834" cx="22.49" cy="22.49" r="22.49" transform="translate(16567.512 19179.512)" fill="none" stroke="#fff" stroke-width="1"/>
    <path id="Icon_awesome-user-tie-6" data-name="Icon awesome-user-tie" d="M9.153,10.46a5.23,5.23,0,1,0-5.23-5.23,5.23,5.23,0,0,0,5.23,5.23Zm3.914,1.332-1.953,7.821L9.806,14.056l1.308-2.288H7.191L8.5,14.056,7.191,19.613,5.238,11.792A5.482,5.482,0,0,0,0,17.259v1.7a1.962,1.962,0,0,0,1.961,1.961H16.344a1.962,1.962,0,0,0,1.961-1.961v-1.7A5.482,5.482,0,0,0,13.067,11.792Z" transform="translate(16580.848 19191.539)" fill="#fff"/>
  </g>
</svg>
