<svg xmlns="http://www.w3.org/2000/svg" width="35" height="35" viewBox="0 0 50 50">
  <g id="Group_4983" data-name="Group 4983" transform="translate(-11007 -7464)">
    <g id="Group_4896" data-name="Group 4896" transform="translate(-5108 -11713)">
      <circle id="Ellipse_834" class="dynamic_fill_color"  data-name="Ellipse 834" cx="25" cy="25" r="25" transform="translate(16115 19177)" fill="#12b4fd"/>
      <circle id="Ellipse_834-2" data-name="Ellipse 834" cx="22.49" cy="22.49" r="22.49" transform="translate(16117.51 19179.512)" fill="none" stroke="#fff" stroke-width="1"/>
    </g>
    <path id="Icon_simple-whatsapp" data-name="Icon simple-whatsapp" d="M18.956,15.581c-.326-.163-1.914-.939-2.21-1.047s-.512-.162-.729.163-.835,1.044-1.023,1.259-.378.228-.7.081a8.792,8.792,0,0,1-2.6-1.609,9.829,9.829,0,0,1-1.8-2.242c-.189-.325-.021-.5.141-.666.147-.146.326-.374.489-.567a2.746,2.746,0,0,0,.322-.537.6.6,0,0,0-.027-.568c-.081-.162-.728-1.755-1-2.39s-.528-.552-.728-.552c-.186-.016-.4-.016-.619-.016a1.221,1.221,0,0,0-.863.389A3.617,3.617,0,0,0,6.476,9.959,6.339,6.339,0,0,0,7.8,13.29a14.445,14.445,0,0,0,5.525,4.859c.773.325,1.376.52,1.846.681a4.482,4.482,0,0,0,2.037.131,3.334,3.334,0,0,0,2.184-1.545,2.682,2.682,0,0,0,.2-1.544c-.08-.146-.293-.227-.618-.374m-5.9,8.063h-.017a10.837,10.837,0,0,1-5.476-1.495l-.39-.232L3.12,22.892l1.089-3.949-.259-.406A10.745,10.745,0,0,1,20.684,5.282a10.6,10.6,0,0,1,3.151,7.573A10.758,10.758,0,0,1,13.073,23.564M22.23,3.736A13.154,13.154,0,0,0,13.049,0,12.88,12.88,0,0,0,1.837,19.325L0,26l6.863-1.79a13.067,13.067,0,0,0,6.186,1.568h.007A12.935,12.935,0,0,0,26,12.891a12.777,12.777,0,0,0-3.786-9.112" transform="translate(11019 7476)" fill="#fff"/>
  </g>
</svg>
