<svg xmlns="http://www.w3.org/2000/svg" width="35" height="35" viewBox="0 0 50 50">
  <g id="Group_4903" data-name="Group 4903" transform="translate(-16475 -19092)">
    <circle id="Ellipse_834" data-name="Ellipse 834" cx="25" cy="25" r="25" transform="translate(16475 19092)" fill="#fff"/>
    <circle id="Ellipse_834-2" class="dynamic_stroke_color" data-name="Ellipse 834" cx="22.49" cy="22.49" r="22.49" transform="translate(16477.512 19094.512)" fill="none" stroke="#33b5e5" stroke-width="1"/>
    <path id="Icon_awesome-phone-alt" data-name="Icon awesome-phone-alt" d="M17.783,12.935l-4-1.716a.858.858,0,0,0-1,.247L11,13.633A13.252,13.252,0,0,1,4.669,7.3L6.836,5.524a.856.856,0,0,0,.247-1l-1.716-4a.864.864,0,0,0-.983-.5L.665.88A.858.858,0,0,0,0,1.716,16.588,16.588,0,0,0,16.589,18.305a.858.858,0,0,0,.837-.665l.858-3.718a.868.868,0,0,0-.5-.987Z" transform="translate(16490.848 19107.848)" fill="#33b5e5"/>
  </g>
</svg>
